<svg version="1.2" xmlns="http://www.w3.org/2000/svg" viewBox="0 0 355 574" width="355" height="574"><style>.a{fill:#fff}.b{fill:#80d8c9}.c{fill:#0397ce}.d{fill:#43bac2}.e{fill:#1f62aa}.f{fill:#3a2e86}</style><path fill-rule="evenodd" class="a" d="m1.6 376.5c2.6-0.5 6.1-0.7 9.7-0.7 5.8 0 9.5 0.9 12.5 3 3.4 2.3 5.6 6.1 5.6 11.7 0 6.3-2.4 10.3-5.3 12.6-3.4 2.6-8.4 3.8-14.4 3.8-3.9 0-6.5-0.3-8.1-0.6zm8.2 24c0.4 0.1 1.1 0.1 1.7 0.1 5.3 0.1 9.2-2.9 9.2-9.7 0-6-3.6-8.8-8.5-8.8-1.2 0-2 0.1-2.4 0.2z"/><path fill-rule="evenodd" class="a" d="m43.7 407c-6.7 0-11.9-4.2-11.9-11.5 0-7.1 4.7-11.8 12.3-11.8 7 0 11.6 4.7 11.6 11.4 0 8.1-5.8 11.9-12 11.9zm0.2-5.8c2.2 0 3.4-2.3 3.4-5.8 0-3.1-1-5.9-3.4-5.9-2.7 0-3.6 2.9-3.6 5.9 0 3.3 1.1 5.8 3.6 5.8z"/><path fill-rule="evenodd" class="a" d="m66 398.2c0.2 1.8 2.8 2.8 5.7 2.8 2.1 0 4.1-0.3 6.1-0.9l1 5.4c-2.7 1.1-5.6 1.4-8.3 1.4-7.8 0-12.3-4.3-12.3-11.3 0-5.2 3.4-11.9 11.6-11.9 7.2 0 10.2 5.3 10.2 11.4 0 1.4-0.1 2.6-0.3 3.1zm6.6-5.5c0-1.3-0.6-3.6-3.2-3.6-2.4 0-3.3 2.2-3.5 3.6z"/><path class="a" d="m83.2 391.8c0-2.9 0-5.5-0.1-7.6h7l0.4 2.9h0.1c0.8-1.2 3-3.4 6.7-3.4 5.2 0 8.1 3.6 8.1 9.7v13.1h-8.2v-12.1c0-2.6-0.9-4.1-2.9-4.1-1.6 0-2.3 1.1-2.6 1.9-0.2 0.5-0.3 1.1-0.3 1.7v12.6h-8.2z"/><path class="a" d="m127 406c-1 0.5-2.8 0.9-4.8 0.9l-0.7 1.5c1.7 0.4 3.3 1.6 3.3 3.8 0 3.4-3 4.4-5.7 4.4-1.5 0-3-0.2-4.1-0.9l0.9-3.1c0.7 0.4 1.8 0.6 2.6 0.6 0.8 0 1.5-0.2 1.5-1 0-0.8-0.9-1.3-3.6-1.6l1.7-3.9c-5.8-0.9-9.3-5-9.3-11.1 0-6.4 4.4-11.8 13.1-11.8 1.6 0 3.5 0.2 5.1 0.8l-1.1 5.9c-0.8-0.3-1.9-0.5-3.6-0.5-3 0-5.2 2.1-5.1 5.3 0 3.6 2.5 5.4 5.4 5.4 1.3 0 2.5-0.2 3.5-0.6z"/><path fill-rule="evenodd" class="a" d="m149.9 401.1c0 2.2 0.2 4.3 0.4 5.4h-7.4l-0.4-2h-0.2c-1.5 1.8-3.7 2.5-6.1 2.5-4.6 0-7.4-3.3-7.4-7 0-6 5.4-8.7 13-8.7v-0.1c0-0.9-0.7-1.9-3.7-1.9-2.4 0-4.8 0.8-6.3 1.6l-1.4-5.1c1.4-0.8 4.6-2.1 9.2-2.1 7.7 0 10.3 4.3 10.3 9.9zm-7.9-4.8c-3.3 0-5.2 0.9-5.2 2.9 0 1.4 0.9 2.1 2.3 2.1 1.2 0 2.4-0.8 2.8-2 0.1-0.4 0.1-0.8 0.1-1.2z"/><path class="a" d="m154.7 399.6c1.3 0.8 4.2 1.7 6.1 1.7 1.8 0 2.5-0.4 2.5-1.2 0-0.8-0.5-1.2-2.9-1.9-4.9-1.6-6.6-4.2-6.6-6.8 0-4.4 3.8-7.7 9.7-7.7 2.7 0 5.2 0.7 6.6 1.3l-1.3 5.5c-1-0.5-3.1-1.2-4.9-1.2-1.4 0-2.2 0.4-2.2 1.3 0 0.7 0.7 1.1 3.3 2 4.4 1.4 6.1 3.7 6.1 6.9 0 4.2-3.3 7.4-10.2 7.4-3.1 0-5.8-0.6-7.6-1.5z"/><path class="a" d="m206.1 405.7c-1.2 0.6-4.1 1.2-7.7 1.2-11.4 0-16.4-7.1-16.4-15.2 0-10.7 7.9-16.1 16.9-16.1 3.5 0 6.4 0.6 7.7 1.3l-1.6 6.4c-1.3-0.5-3.2-1.1-5.7-1.1-4.7 0-8.7 2.8-8.7 9 0 5.5 3.3 9 8.9 9 1.9 0 4.2-0.4 5.4-0.9z"/><path class="a" d="m209.5 391.7c0-3.5 0-5.6-0.1-7.5h6.9l0.3 4.1h0.2c1.2-3.4 4-4.6 5.9-4.6 0.8 0 1.1 0 1.7 0.2v7.6c-0.6-0.1-1.2-0.2-2.1-0.2-2.4 0-4 1-4.5 2.8 0 0.4-0.1 0.9-0.1 1.4v11h-8.2z"/><path fill-rule="evenodd" class="a" d="m237.7 407c-6.7 0-11.8-4.2-11.8-11.5 0-7.1 4.6-11.8 12.2-11.8 7 0 11.6 4.7 11.6 11.4 0 8.1-5.8 11.9-12 11.9zm2.9-32.4l4.6 7h-5.1l-2.1-3.8h-0.1l-2.2 3.8h-5.1l4.6-7zm-2.7 26.6c2.2 0 3.4-2.3 3.4-5.8 0-3.1-1-5.9-3.4-5.9-2.7 0-3.6 2.9-3.6 5.9 0 3.3 1.1 5.8 3.6 5.8z"/><path class="a" d="m253.2 391.8c0-2.9-0.1-5.5-0.2-7.6h7l0.4 2.9h0.1c0.8-1.2 3-3.4 6.7-3.4 5.2 0 8.1 3.6 8.1 9.7v13.1h-8.2v-12.1c0-2.6-0.9-4.1-2.9-4.1-1.5 0-2.3 1.1-2.6 1.9-0.2 0.5-0.3 1.1-0.3 1.7v12.6h-8.1z"/><path class="a" d="m283.9 381.9c-2.6 0-4.1-1.7-4.1-3.8 0-2.3 1.6-3.9 4.1-3.9 2.6 0 4.1 1.6 4.2 3.9 0 2.1-1.6 3.8-4.2 3.8zm4.1 2.3v22.3h-8.1v-22.3z"/><path class="a" d="m309.7 406c-1.3 0.6-3.6 0.9-6.1 0.9-7.5 0-12.1-4.3-12.1-11.4 0-6.3 4.4-11.7 13.1-11.7 1.5 0 3.5 0.2 5.1 0.8l-1.2 5.9c-0.7-0.3-1.8-0.5-3.5-0.5-3 0-5.2 2.1-5.1 5.3 0 3.6 2.4 5.3 5.3 5.3 1.4 0 2.6-0.2 3.6-0.6z"/><path fill-rule="evenodd" class="a" d="m332.6 401.1c0 2.2 0.2 4.3 0.4 5.4h-7.4l-0.4-2h-0.2c-1.5 1.8-3.7 2.5-6.1 2.5-4.6 0-7.4-3.3-7.4-7 0-6 5.4-8.7 12.9-8.7v-0.1c0-0.9-0.7-1.9-3.6-1.9-2.4 0-4.8 0.8-6.3 1.6l-1.4-5.1c1.4-0.8 4.6-2.1 9.2-2.1 7.6 0 10.3 4.3 10.3 9.9zm-7.9-4.8c-3.3 0-5.2 0.9-5.2 2.9 0 1.4 0.9 2.1 2.3 2.1 1.2 0 2.4-0.8 2.8-2 0.1-0.4 0.1-0.8 0.1-1.2z"/><path class="a" d="m337.4 399.6c1.2 0.8 4.1 1.7 6.1 1.7 1.8 0 2.5-0.4 2.5-1.2 0-0.8-0.5-1.2-2.9-1.9-5-1.6-6.6-4.2-6.6-6.8 0-4.4 3.8-7.7 9.7-7.7 2.7 0 5.2 0.7 6.6 1.3l-1.3 5.5c-1.1-0.5-3.1-1.2-4.9-1.2-1.4 0-2.3 0.4-2.3 1.3 0 0.7 0.8 1.1 3.4 2 4.4 1.4 6 3.7 6.1 6.9 0 4.2-3.3 7.4-10.2 7.4-3.1 0-5.9-0.6-7.6-1.5z"/><path class="a" d="m1.5 448v-28.2h9l4.4 8.6c1.6 2.8 3.2 6.6 4.5 9.9h0.1c-0.4-3.7-0.6-7.7-0.6-11.8v-6.7h6.9v28.2h-7.9l-4.8-9.4c-1.6-3-3.4-6.8-4.8-10.2h-0.1c0.2 3.8 0.3 8 0.3 12.6v7z"/><path fill-rule="evenodd" class="a" d="m48.7 442.9c0 2.1 0.1 4 0.3 5.1h-6.8l-0.4-1.8h-0.2c-1.4 1.6-3.4 2.2-5.6 2.2-4.3 0-6.9-3-6.9-6.5 0-5.5 5-8 12-8v-0.1c0-0.9-0.6-1.8-3.4-1.8-2.2 0-4.4 0.8-5.8 1.5l-1.3-4.7c1.3-0.7 4.3-1.9 8.5-1.9 7.1 0 9.6 3.9 9.6 9.1zm-15.9-18.1c-0.2-3.9 1.4-6 3.7-6 1 0 2 0.4 2.7 0.8 0.7 0.4 1.3 0.8 1.8 0.8 0.7 0 0.9-0.4 1.1-1.9h3.3c0.2 4.3-1.4 5.9-3.7 5.9-1.2 0-2.1-0.5-3-0.9-0.7-0.4-1-0.7-1.5-0.7-0.6 0-1 0.6-1 2zm8.6 13.7c-3.1 0-4.8 0.8-4.8 2.7 0 1.3 0.8 1.9 2.1 1.9 1.1 0 2.2-0.7 2.6-1.8 0.1-0.4 0.1-0.8 0.1-1.1z"/><path fill-rule="evenodd" class="a" d="m62.8 448.4c-6.2 0-10.9-3.9-10.9-10.6 0-6.5 4.3-10.9 11.3-10.9 6.4 0 10.7 4.4 10.7 10.6 0 7.4-5.3 10.9-11.1 10.9zm0.2-5.3c2.1 0 3.2-2.1 3.2-5.4 0-2.9-1-5.5-3.2-5.5-2.5 0-3.3 2.7-3.3 5.5 0 3.1 1 5.4 3.3 5.4z"/><path class="a" d="m89.1 426.1h-7.2v-6.3h22.1v6.3h-7.3v21.9h-7.6z"/><path class="a" d="m104.4 434.3c0-3.2-0.1-5.2-0.2-6.9h6.5l0.3 3.7h0.1c1.1-3.1 3.7-4.2 5.5-4.2 0.7 0 1 0 1.5 0.1v7.1c-0.5-0.1-1.1-0.2-1.9-0.2-2.2 0-3.7 0.9-4.2 2.6 0 0.3 0 0.8 0 1.3v10.2h-7.6z"/><path fill-rule="evenodd" class="a" d="m138.6 442.9c0 2.1 0.1 4 0.3 5.1h-6.8l-0.4-1.8h-0.2c-1.4 1.6-3.4 2.2-5.6 2.2-4.3 0-6.9-3-6.9-6.5 0-5.5 5-8 12-8v-0.1c0-0.9-0.6-1.8-3.4-1.8-2.2 0-4.4 0.8-5.8 1.5l-1.3-4.7c1.3-0.7 4.3-1.9 8.5-1.9 7.1 0 9.6 3.9 9.6 9.1zm-7.3-4.4c-3.1 0-4.9 0.8-4.9 2.7 0 1.3 0.9 1.9 2.2 1.9 1.1 0 2.2-0.7 2.6-1.8 0.1-0.4 0.1-0.8 0.1-1.1z"/><path class="a" d="m142.8 434.4c0-2.8-0.1-5.1-0.2-7h6.5l0.4 2.6h0.1c0.7-1.1 2.7-3.1 6.2-3.1 4.8 0 7.4 3.3 7.4 8.9v12.2h-7.5v-11.3c0-2.3-0.8-3.7-2.7-3.7-1.5 0-2.1 1-2.5 1.8-0.1 0.4-0.2 0.9-0.2 1.5v11.7h-7.5z"/><path class="a" d="m167.6 441.6c1.2 0.7 3.9 1.5 5.7 1.5 1.6 0 2.3-0.3 2.3-1.1 0-0.7-0.5-1-2.7-1.7-4.6-1.5-6.1-3.9-6.1-6.3 0-4.1 3.5-7.1 9-7.1 2.5 0 4.8 0.6 6.1 1.2l-1.2 5.1c-1-0.5-2.9-1.1-4.6-1.1-1.3 0-2 0.3-2 1.1 0 0.7 0.6 1.1 3.1 1.9 4 1.3 5.6 3.4 5.6 6.4 0 3.9-3 6.9-9.4 6.9-2.9 0-5.4-0.7-7.1-1.5z"/><path class="a" d="m185.9 434.4c0-2.8-0.1-5.1-0.2-7h6.4l0.3 2.6h0.1c0.8-1.1 2.6-3.1 6.1-3.1 2.7 0 4.7 1.2 5.6 3.3h0.1c0.8-1.1 1.7-1.9 2.8-2.5q1.6-0.8 3.7-0.8c4.4 0 7 3.2 7 9v12.1h-7.4v-11c0-2.6-0.7-4-2.4-4-1.2 0-2 0.7-2.3 1.7-0.2 0.5-0.2 1.1-0.2 1.5v11.8h-7.3v-11.2c0-2.3-0.7-3.8-2.5-3.8-1.3 0-2 1-2.3 1.7-0.1 0.5-0.2 1-0.2 1.5v11.8h-7.3z"/><path class="a" d="m225.7 425.2c-2.4 0-3.8-1.6-3.8-3.5 0-2.1 1.5-3.6 3.8-3.6 2.4 0 3.8 1.5 3.9 3.6 0 1.9-1.5 3.5-3.9 3.5zm3.8 2.2v20.6h-7.6v-20.6z"/><path class="a" d="m233.9 441.6c1.2 0.7 3.9 1.5 5.7 1.5 1.6 0 2.3-0.3 2.3-1.1 0-0.7-0.5-1-2.7-1.7-4.6-1.5-6.1-3.9-6.1-6.3 0-4.1 3.5-7.1 9-7.1 2.5 0 4.7 0.6 6.1 1.2l-1.2 5.1c-1-0.5-2.9-1.1-4.6-1.1-1.3 0-2 0.3-2 1.1 0 0.7 0.6 1.1 3.1 1.9 4 1.3 5.6 3.4 5.6 6.4 0 3.9-3 6.9-9.4 6.9-2.9 0-5.4-0.7-7.1-1.5z"/><path class="a" d="m252.4 441.6c1.1 0.7 3.8 1.5 5.7 1.5 1.6 0 2.2-0.3 2.2-1.1 0-0.7-0.4-1-2.7-1.7-4.5-1.5-6.1-3.9-6-6.3 0-4.1 3.5-7.1 8.9-7.1 2.5 0 4.8 0.6 6.1 1.2l-1.2 5.1c-0.9-0.5-2.9-1.1-4.5-1.1-1.3 0-2.1 0.3-2.1 1.1 0 0.7 0.7 1.1 3.1 1.9 4.1 1.3 5.6 3.4 5.7 6.4 0 3.9-3.1 6.9-9.5 6.9-2.8 0-5.4-0.7-7-1.5z"/><path class="a" d="m278.2 427.4v20.6h-7.6v-20.6zm3.5-9l-5.1 6.5h-5.1l3.5-6.5z"/><path class="a" d="m288.7 427.4l2.2 8.7c0.4 1.6 0.7 3.2 0.9 4.9h0.2c0.2-1.7 0.5-3.2 0.9-4.9l2-8.7h7.9l-7.4 20.6h-7.6l-7.3-20.6z"/><path fill-rule="evenodd" class="a" d="m310.5 440.3c0.3 1.6 2.6 2.5 5.3 2.5 1.9 0 3.8-0.2 5.6-0.7l1 5c-2.5 0.9-5.2 1.3-7.7 1.3-7.3 0-11.4-4-11.4-10.5 0-4.8 3.1-11 10.7-11 6.7 0 9.5 4.9 9.5 10.6 0 1.2-0.1 2.3-0.3 2.8zm6.1-5.1c0-1.2-0.5-3.4-2.9-3.4-2.2 0-3.1 2.1-3.3 3.4z"/><path class="a" d="m330.3 425.2c-2.4 0-3.9-1.6-3.9-3.5 0-2.1 1.6-3.6 3.9-3.6 2.3 0 3.8 1.5 3.9 3.6 0 1.9-1.6 3.5-3.9 3.5zm3.8 2.2v20.6h-7.6v-20.6z"/><path class="a" d="m338.5 441.6c1.2 0.7 3.9 1.5 5.7 1.5 1.6 0 2.3-0.3 2.3-1.1 0-0.7-0.5-1-2.7-1.7-4.6-1.5-6.1-3.9-6.1-6.3 0-4.1 3.5-7.1 9-7.1 2.5 0 4.7 0.6 6.1 1.2l-1.2 5.1c-1-0.5-2.9-1.1-4.6-1.1-1.3 0-2.1 0.3-2.1 1.1 0 0.7 0.7 1.1 3.1 1.9 4.1 1.3 5.7 3.4 5.7 6.4 0 3.9-3.1 6.9-9.4 6.9-2.9 0-5.5-0.7-7.1-1.5z"/><path class="a" d="m9.8 463.1c-1.8 3.4-3.3 8.4-3.3 14.9 0 6.5 1.5 11.5 3.3 14.9h-4.5c-1.8-2.8-4-7.8-4-14.9 0.1-7.1 2.2-12.1 4-14.9z"/><path fill-rule="evenodd" class="a" d="m13.3 464.1c2.1-0.4 5-0.6 7.9-0.6 4.8 0 7.8 0.8 10.3 2.5 2.7 1.9 4.5 5 4.5 9.6 0 5.1-1.9 8.4-4.3 10.3-2.8 2.1-6.9 3-11.8 3-3.2 0-5.3-0.2-6.6-0.4zm6.7 19.6c0.3 0.1 0.9 0.1 1.4 0.1 4.3 0 7.5-2.4 7.5-8 0-4.9-2.9-7.2-6.9-7.2-1 0-1.7 0.1-2 0.2z"/><path class="a" d="m57.8 488c-0.9 0.5-3.3 1-6.2 1-9.4 0-13.5-5.8-13.5-12.4 0-8.8 6.5-13.2 13.9-13.2 2.9 0 5.2 0.5 6.2 1l-1.3 5.3c-1-0.4-2.6-0.9-4.6-0.9-3.8 0-7.1 2.3-7.1 7.4 0 4.5 2.7 7.3 7.3 7.3 1.5 0 3.4-0.3 4.4-0.7z"/><path class="a" d="m61.1 488.6v-24.9h7.9l3.9 7.7c1.4 2.5 2.8 5.8 3.9 8.7h0.1c-0.3-3.3-0.5-6.8-0.5-10.5v-5.9h6.1v24.9h-7l-4.3-8.2c-1.3-2.7-3-6-4.1-9h-0.2c0.2 3.3 0.3 7.1 0.3 11.1v6.1z"/><path class="a" d="m91.6 469.4h-6.3v-5.7h19.5v5.7h-6.5v19.2h-6.7z"/><path class="a" d="m107.4 492.9c1.8-3.3 3.4-8.4 3.4-14.9 0-6.5-1.6-11.5-3.4-14.9h4.5c1.8 2.8 4 7.7 4 14.9 0 7.2-2.2 12.1-4 14.9z"/><path fill-rule="evenodd" class="a" d="m132.2 481.9c0.3 1.4 2.4 2.2 4.7 2.2 1.7 0 3.4-0.1 5-0.7l0.8 4.5c-2.1 0.8-4.5 1.1-6.8 1.1-6.4 0-10-3.5-10-9.3 0-4.2 2.8-9.6 9.4-9.6 5.9 0 8.4 4.3 8.4 9.3 0 1-0.1 2-0.2 2.5zm5.3-4.5c0-1.1-0.4-3-2.5-3-2 0-2.8 1.8-2.9 3z"/><path fill-rule="evenodd" class="a" d="m162.1 489.1c-5.4 0-9.7-3.5-9.7-9.4 0-5.8 3.9-9.6 10.1-9.6 5.7 0 9.4 3.8 9.4 9.3 0 6.6-4.7 9.7-9.8 9.7zm0.2-4.7c1.8 0 2.8-1.9 2.8-4.8 0-2.6-0.8-4.9-2.8-4.9-2.2 0-2.9 2.5-2.9 4.9 0 2.7 0.8 4.8 2.9 4.8z"/><path fill-rule="evenodd" class="a" d="m182 464.1c2.1-0.4 5-0.6 7.9-0.6 4.8 0 7.8 0.8 10.3 2.5 2.7 1.9 4.5 5 4.5 9.6 0 5.1-2 8.4-4.4 10.3-2.7 2.1-6.8 3-11.7 3-3.2 0-5.3-0.2-6.6-0.4zm6.7 19.6c0.3 0.1 0.9 0.1 1.4 0.1 4.3 0 7.5-2.4 7.5-8 0-4.9-2.9-7.2-6.9-7.2-1 0-1.7 0.1-2 0.2z"/><path fill-rule="evenodd" class="a" d="m213 481.9c0.3 1.4 2.4 2.2 4.7 2.2 1.7 0 3.4-0.1 5-0.7l0.8 4.5c-2.1 0.8-4.5 1.1-6.8 1.1-6.4 0-10-3.5-10-9.3 0-4.2 2.7-9.6 9.4-9.6 5.9 0 8.4 4.3 8.4 9.3 0 1-0.1 2-0.2 2.5zm5.3-4.5c0-1.1-0.4-3-2.6-3-1.9 0-2.7 1.8-2.8 3z"/><path class="a" d="m227.3 483c1.1 0.7 3.4 1.4 5.1 1.4 1.4 0 2-0.3 2-1 0-0.7-0.4-0.9-2.4-1.6-4-1.2-5.4-3.4-5.4-5.5 0-3.6 3.2-6.2 8-6.2 2.2 0 4.2 0.5 5.4 1l-1.1 4.5c-0.9-0.4-2.6-1-4-1-1.2 0-1.9 0.3-1.9 1 0 0.6 0.6 1 2.8 1.7 3.6 1.1 4.9 3 5 5.6 0 3.5-2.7 6.1-8.4 6.1-2.5 0-4.8-0.5-6.2-1.3z"/><path fill-rule="evenodd" class="a" d="m259.7 484.2c0 1.8 0.1 3.5 0.3 4.4h-6.1l-0.3-1.5h-0.1c-1.3 1.4-3.1 2-5.1 2-3.7 0-6-2.7-6-5.8 0-4.9 4.4-7 10.6-7v-0.2c0-0.7-0.6-1.5-3-1.5-1.9 0-3.9 0.6-5.2 1.3l-1.1-4.2c1.1-0.6 3.8-1.6 7.5-1.6 6.3 0 8.5 3.4 8.5 8zm-6.5-3.9c-2.7 0-4.3 0.7-4.3 2.4 0 1.1 0.8 1.7 1.9 1.7 1 0 2-0.7 2.3-1.7 0.1-0.3 0.1-0.6 0.1-0.9z"/><path class="a" d="m264.2 488.6v-13.3h-2.3v-4.8h2.3v-0.7c0-5.1 4.3-7.8 10.2-7.8 2 0 4.4 0.4 5.6 1.1l-1.1 5c-1-0.4-2.4-0.9-4.3-0.9-2.7 0-3.8 1.2-3.8 2.7v0.6h11.3v18.1h-6.7v-13.3h-4.5v13.3z"/><path fill-rule="evenodd" class="a" d="m294.6 489.1c-5.5 0-9.7-3.5-9.7-9.4 0-5.8 3.8-9.6 10-9.6 5.7 0 9.5 3.8 9.5 9.3 0 6.6-4.7 9.7-9.8 9.7zm0.2-4.7c1.8 0 2.8-1.9 2.8-4.8 0-2.6-0.9-4.9-2.8-4.9-2.2 0-3 2.5-3 4.9 0 2.7 0.9 4.8 2.9 4.8z"/><path fill-rule="evenodd" class="a" d="m332.6 462.4v20.5c0 2.3 0.1 4.5 0.2 5.7h-6l-0.2-2.4h-0.1c-1.2 2-3.4 2.9-5.5 2.9-4.2 0-7.7-3.7-7.7-9.4-0.1-6.1 3.8-9.6 8.1-9.6 2 0 3.6 0.5 4.4 1.7h0.1v-9.4zm-6.7 15.9c0-0.2 0-0.6 0-0.8-0.3-1.3-1.2-2.3-2.6-2.3-2.3 0-3.3 2-3.3 4.3 0 2.8 1.4 4.3 3.2 4.3 1.4 0 2.4-1 2.6-2.2 0.1-0.4 0.1-0.8 0.1-1.2z"/><path fill-rule="evenodd" class="a" d="m352.6 484.2c0 1.8 0.1 3.5 0.3 4.4h-6.1l-0.3-1.5h-0.2c-1.2 1.4-3 2-5 2-3.7 0-6-2.7-6-5.8 0-4.9 4.4-7 10.6-7v-0.2c0-0.7-0.6-1.5-3-1.5-2 0-4 0.6-5.2 1.3l-1.1-4.2c1.1-0.6 3.8-1.6 7.5-1.6 6.3 0 8.5 3.4 8.5 8zm-6.5-3.9c-2.8 0-4.3 0.7-4.3 2.4 0 1.1 0.8 1.7 1.9 1.7 1 0 2-0.7 2.3-1.7 0.1-0.3 0.1-0.6 0.1-0.9z"/><path class="a" d="m9.5 529.3l-8.3-26.2h7.7l2.8 10.3c0.8 3 1.5 5.9 2.2 9.2h0.1c0.6-3.2 1.4-6.2 2.1-9.1l2.9-10.4h7.5l-8.6 26.2z"/><path class="a" d="m30.9 508.2c-2.2 0-3.5-1.5-3.5-3.3 0-2 1.4-3.4 3.5-3.4 2.2 0 3.6 1.4 3.6 3.4 0 1.8-1.4 3.3-3.6 3.3zm3.6 2v19.1h-7.1v-19.1z"/><path fill-rule="evenodd" class="a" d="m57.3 526.5c0 3.4-0.7 6.6-3 8.6-2.2 1.9-5.1 2.4-8.1 2.4-2.6 0-5.3-0.5-7.1-1.5l1.3-5.3c1.2 0.7 3.4 1.4 5.5 1.4 2.5 0 4.5-1.3 4.5-4.3v-0.8h-0.1c-1.2 1.4-2.9 2.1-4.8 2.1-4.7 0-8.1-3.7-8.1-9.3 0-6 3.9-10.1 8.7-10.1 2.4 0 4 0.9 5 2.5h0.1l0.2-2h6c0 1.2-0.1 2.8-0.1 5.9zm-7-8.5q0-0.5-0.1-0.9c-0.3-1.4-1.2-2.2-2.5-2.2-1.7 0-3.1 1.7-3.1 4.7 0 2.5 1.1 4.3 3.1 4.3 1.3 0 2.2-0.8 2.5-1.9 0.1-0.4 0.1-1 0.1-1.4z"/><path class="a" d="m64.7 508.2c-2.2 0-3.5-1.5-3.5-3.3 0-2 1.4-3.4 3.6-3.4 2.1 0 3.5 1.4 3.5 3.4 0 1.8-1.4 3.3-3.5 3.3zm3.5 2v19.1h-7v-19.1z"/><path fill-rule="evenodd" class="a" d="m79.3 501.6v27.7h-7.1v-27.7z"/><path fill-rule="evenodd" class="a" d="m100.3 524.7c0 1.9 0.1 3.7 0.3 4.6h-6.4l-0.3-1.6h-0.2c-1.3 1.5-3.2 2.1-5.3 2.1-3.9 0-6.3-2.9-6.3-6.1 0-5.1 4.6-7.4 11.1-7.4v-0.2c0-0.7-0.6-1.6-3.1-1.6-2.1 0-4.2 0.7-5.5 1.4l-1.2-4.4c1.2-0.7 4-1.8 8-1.8 6.6 0 8.9 3.7 8.9 8.5zm-6.3-22.8l3.9 6.1h-4.4l-1.8-3.3h-0.1l-1.9 3.3h-4.4l4-6.1zm-0.5 18.7c-2.9 0-4.5 0.8-4.5 2.5 0 1.2 0.8 1.8 2 1.8 1 0 2-0.7 2.4-1.7 0.1-0.3 0.1-0.7 0.1-1z"/><path class="a" d="m104.2 516.7c0-2.5-0.1-4.7-0.2-6.5h6.1l0.3 2.4h0.1c0.7-1 2.6-2.9 5.8-2.9 4.5 0 6.9 3.1 6.9 8.3v11.3h-7v-10.4c0-2.2-0.8-3.5-2.5-3.5-1.4 0-2 0.9-2.3 1.7-0.1 0.3-0.2 0.9-0.2 1.4v10.8h-7z"/><path class="a" d="m141.8 528.9c-1.1 0.6-3.1 0.8-5.2 0.8-6.4 0-10.4-3.7-10.4-9.8 0-5.4 3.8-10.1 11.2-10.1 1.4 0 3.1 0.2 4.4 0.6l-0.9 5.2c-0.7-0.3-1.6-0.5-3.1-0.5-2.6 0-4.5 1.8-4.4 4.6 0 3.1 2.1 4.6 4.6 4.6 1.2 0 2.2-0.2 3.1-0.5z"/><path class="a" d="m147.8 508.2c-2.1 0-3.5-1.5-3.5-3.3 0-2 1.4-3.4 3.6-3.4 2.2 0 3.5 1.4 3.6 3.4 0 1.8-1.4 3.3-3.6 3.3zm3.5 2v19.1h-7v-19.1z"/><path fill-rule="evenodd" class="a" d="m172.4 524.7c0 1.9 0.1 3.7 0.3 4.6h-6.3l-0.4-1.6h-0.2c-1.3 1.5-3.2 2.1-5.3 2.1-3.9 0-6.3-2.9-6.3-6.1 0-5.1 4.6-7.4 11.1-7.4v-0.2c0-0.7-0.5-1.6-3.1-1.6-2 0-4.1 0.7-5.4 1.4l-1.2-4.4c1.2-0.7 3.9-1.8 7.9-1.8 6.6 0 8.9 3.7 8.9 8.5zm-6.8-4.1c-2.9 0-4.5 0.8-4.5 2.5 0 1.2 0.8 1.8 2 1.8 1 0 2-0.7 2.4-1.7 0.1-0.3 0.1-0.7 0.1-1z"/><path fill-rule="evenodd" class="a" d="m189.3 522.2c0.3 1.5 2.5 2.4 5 2.4 1.8 0 3.5-0.2 5.2-0.7l0.9 4.6c-2.3 0.9-4.8 1.2-7.2 1.2-6.7 0-10.5-3.7-10.5-9.7 0-4.5 2.9-10.3 9.9-10.3 6.2 0 8.9 4.6 8.9 9.9 0 1.1-0.2 2.1-0.3 2.6zm5.6-4.7c0-1.1-0.5-3.2-2.7-3.2-2.1 0-2.9 2-3 3.2z"/><path class="a" d="m204.3 516.7c0-2.5-0.1-4.7-0.2-6.5h5.9l0.3 2.4h0.1c0.7-1 2.4-2.9 5.7-2.9 2.5 0 4.4 1.2 5.2 3.1h0.1c0.7-1 1.6-1.7 2.6-2.3q1.5-0.7 3.4-0.8c4.1 0 6.5 3 6.5 8.4v11.2h-6.8v-10.2c0-2.3-0.7-3.7-2.3-3.7-1.1 0-1.8 0.7-2.1 1.6-0.2 0.4-0.2 1-0.2 1.4v10.9h-6.8v-10.4c0-2.1-0.7-3.5-2.3-3.5-1.2 0-1.8 0.9-2.1 1.6-0.2 0.4-0.2 0.9-0.2 1.4v10.9h-6.8z"/><path class="a" d="m245.8 522.3c1.6 0.8 4.2 1.7 6.9 1.7 2.4 0 3.6-0.9 3.6-2.2 0-1.3-1.2-2-4.2-3-4.4-1.6-7.4-4-7.4-7.9 0-4.6 4-8.2 10.6-8.2 3.1 0 5.4 0.6 7.1 1.3l-1.5 5.7c-1.1-0.5-3.1-1.3-5.7-1.3-2.1 0-3.3 0.8-3.3 2 0 1.3 1.4 1.8 4.7 3 4.7 1.8 6.8 4.3 6.8 8 0 4.5-3.5 8.3-11.2 8.3-3.1 0-6.2-0.8-7.7-1.6z"/><path fill-rule="evenodd" class="a" d="m284 524.7c0 1.9 0.2 3.7 0.3 4.6h-6.3l-0.4-1.6h-0.1c-1.3 1.5-3.2 2.1-5.3 2.1-3.9 0-6.4-2.9-6.4-6.1 0-5.1 4.7-7.4 11.2-7.4v-0.2c0-0.7-0.6-1.6-3.2-1.6-2 0-4.1 0.7-5.4 1.4l-1.2-4.4c1.2-0.7 4-1.8 8-1.8 6.5 0 8.8 3.7 8.8 8.5zm-6.8-4.1c-2.9 0-4.5 0.8-4.5 2.5 0 1.2 0.8 1.8 2 1.8 1 0 2.1-0.7 2.4-1.7 0.1-0.3 0.1-0.7 0.1-1z"/><path class="a" d="m306.9 522.8c0 2.7 0 4.9 0.1 6.5h-6.1l-0.3-2.5h-0.1c-0.7 1.1-2.4 3-5.8 3-4.3 0-6.8-2.8-6.8-8.3v-11.3h7v10.1c0 2.5 0.8 3.8 2.5 3.8 1.3 0 2-0.9 2.3-1.6q0.1-0.4 0.1-1v-11.3h7.1zm-2.7-21l-4.8 6.1h-4.7l3.3-6.1z"/><path fill-rule="evenodd" class="a" d="m330.3 501.6v21.7c0 2.4 0.1 4.8 0.1 6h-6.2l-0.3-2.5h-0.1c-1.2 2.1-3.6 3-5.7 3-4.5 0-8.2-3.9-8.2-9.9 0-6.5 4.1-10.2 8.6-10.2 2.1 0 3.8 0.7 4.7 1.9v-10zm-7 16.9c0-0.3 0-0.6-0.1-0.9-0.2-1.4-1.2-2.5-2.7-2.5-2.4 0-3.4 2.1-3.4 4.6 0 3 1.4 4.5 3.3 4.5 1.5 0 2.5-1 2.8-2.3 0.1-0.4 0.1-0.8 0.1-1.3z"/><path fill-rule="evenodd" class="a" d="m340 522.2c0.2 1.5 2.4 2.4 4.9 2.4 1.8 0 3.5-0.2 5.2-0.7l0.9 4.6c-2.3 0.9-4.8 1.2-7.1 1.2-6.8 0-10.6-3.7-10.6-9.7 0-4.5 2.9-10.3 9.9-10.3 6.2 0 8.9 4.6 8.9 9.9 0 1.1-0.2 2.1-0.3 2.6zm5.7-4.7c0-1.1-0.6-3.2-2.8-3.2-2 0-2.9 2-3 3.2z"/><path class="a" d="m1.6 557.1q0-2.8-0.1-4.9h4.6l0.2 1.9h0.1c0.5-0.8 1.9-2.2 4.3-2.2 3.3 0 5.2 2.3 5.2 6.2v8.4h-5.3v-7.7c0-1.7-0.6-2.7-1.8-2.7-1.1 0-1.5 0.7-1.8 1.3-0.1 0.3-0.1 0.7-0.1 1v8.1h-5.3z"/><path fill-rule="evenodd" class="a" d="m31.5 563.1c0 1.4 0.1 2.7 0.2 3.4h-4.7l-0.3-1.2h-0.1c-1 1.1-2.4 1.6-3.9 1.6-3 0-4.8-2.2-4.8-4.5 0-3.9 3.5-5.6 8.3-5.6v-0.1c0-0.6-0.4-1.2-2.3-1.2-1.5 0-3.1 0.5-4.1 1l-0.9-3.3c0.9-0.5 3-1.3 6-1.3 4.9 0 6.6 2.8 6.6 6.3zm-5.1-3c-2.1 0-3.3 0.6-3.3 1.8 0 0.9 0.6 1.4 1.5 1.4 0.7 0 1.5-0.5 1.8-1.3 0-0.2 0-0.5 0-0.8z"/><path class="a" d="m34.6 562.1c0.8 0.5 2.6 1.1 3.9 1.1 1.1 0 1.6-0.2 1.6-0.8 0-0.5-0.3-0.7-1.9-1.2-3.1-1-4.2-2.7-4.2-4.4 0-2.8 2.4-4.9 6.2-4.9 1.8 0 3.3 0.4 4.3 0.8l-0.9 3.6c-0.6-0.3-2-0.8-3.1-0.8-0.9 0-1.5 0.2-1.5 0.8 0 0.5 0.5 0.8 2.2 1.3 2.8 0.9 3.9 2.4 3.9 4.4 0 2.8-2.1 4.8-6.5 4.8-2 0-3.8-0.4-4.9-1z"/><path fill-rule="evenodd" class="a" d="m53.2 544.5c1.7-0.3 4.2-0.5 7.2-0.5 3.4 0 5.9 0.4 7.6 1.7 1.4 1.1 2.2 2.7 2.2 4.9 0 2.8-2.1 4.7-3.8 5.4v0.1c1.4 0.7 2.3 2.1 2.8 4 0.7 2.3 1.4 5.6 1.9 6.4h-6.2c-0.3-0.6-0.9-2.3-1.5-5.1-0.6-2.7-1.4-3.3-3.3-3.3h-1v8.4h-5.9zm5.9 9.4h1.6c2.2 0 3.5-1.1 3.5-2.8 0-1.6-1.1-2.6-3-2.6-1.2 0-1.8 0.1-2.1 0.1z"/><path fill-rule="evenodd" class="a" d="m78 560.5c0.2 1.3 2.1 2 4.3 2 1.5 0 2.9-0.2 4.4-0.6l0.8 4c-2 0.7-4.1 1-6.1 1-5.8 0-9.1-3.2-9.1-8.4 0-3.8 2.5-8.7 8.5-8.7 5.3 0 7.6 3.9 7.6 8.4 0 1-0.2 1.9-0.3 2.3zm4.9-4.1c0-0.9-0.5-2.7-2.4-2.7-1.7 0-2.4 1.7-2.5 2.7z"/><path fill-rule="evenodd" class="a" d="m106.9 564.2c0 2.8-0.6 5.5-2.6 7.3-1.8 1.6-4.3 2-6.9 2-2.2 0-4.5-0.4-6.1-1.2l1.2-4.6c1 0.6 2.8 1.2 4.7 1.2 2.1 0 3.8-1.1 3.8-3.6v-0.8h-0.1c-1 1.3-2.4 1.8-4.1 1.8-4 0-6.9-3.1-6.9-7.9 0-5.2 3.4-8.6 7.5-8.6 2 0 3.3 0.8 4.2 2.1h0.1l0.2-1.7h5.1c-0.1 1-0.1 2.4-0.1 5zm-6-7.2q0-0.4-0.1-0.8c-0.2-1.2-1-1.8-2.1-1.8-1.4 0-2.7 1.4-2.7 4 0 2.1 1 3.6 2.7 3.6 1.1 0 1.9-0.7 2.1-1.6 0.1-0.3 0.1-0.8 0.1-1.2z"/><path class="a" d="m113.2 548.5c-1.8 0-3-1.3-3-2.8 0-1.7 1.2-2.9 3.1-2.9 1.8 0 3 1.2 3 2.9 0 1.5-1.2 2.8-3 2.8zm3 1.7v16.3h-6v-16.3z"/><path fill-rule="evenodd" class="a" d="m127.5 566.9c-4.9 0-8.7-3.1-8.7-8.4 0-5.2 3.5-8.7 9-8.7 5.2 0 8.6 3.5 8.6 8.4 0 6-4.3 8.7-8.9 8.7zm-4.8-18.7c-0.2-3.1 1.1-4.8 2.9-4.8 0.8 0 1.6 0.3 2.2 0.6 0.5 0.4 1 0.7 1.4 0.7 0.5 0 0.7-0.3 0.8-1.5h2.7c0.1 3.4-1.1 4.7-2.9 4.7-1 0-1.7-0.4-2.4-0.8-0.6-0.3-0.8-0.5-1.2-0.5-0.5 0-0.8 0.5-0.8 1.6zm5 14.5c1.7 0 2.5-1.7 2.5-4.3 0-2.3-0.7-4.4-2.5-4.4-2 0-2.6 2.2-2.6 4.4 0 2.4 0.8 4.3 2.6 4.3z"/><path fill-rule="evenodd" class="a" d="m143.9 560.5c0.2 1.3 2.1 2 4.2 2 1.6 0 3-0.2 4.5-0.6l0.8 4c-2 0.7-4.1 1-6.2 1-5.7 0-9-3.2-9-8.4 0-3.8 2.5-8.7 8.5-8.7 5.3 0 7.6 3.9 7.6 8.4 0 1-0.2 1.9-0.3 2.3zm4.9-4.1c0-0.9-0.5-2.7-2.4-2.7-1.7 0-2.4 1.7-2.5 2.7z"/><path class="a" d="m156.8 561.5c0.9 0.6 3.1 1.2 4.5 1.2 1.3 0 1.8-0.2 1.8-0.9 0-0.6-0.3-0.8-2.1-1.4-3.6-1.1-4.9-3.1-4.8-5 0-3.2 2.8-5.6 7.1-5.6 2 0 3.8 0.5 4.8 1l-0.9 4c-0.8-0.4-2.3-0.9-3.6-0.9-1.1 0-1.7 0.3-1.7 0.9 0 0.6 0.6 0.9 2.5 1.5 3.2 1.1 4.4 2.8 4.5 5.1 0 3.1-2.5 5.5-7.5 5.5-2.3 0-4.3-0.5-5.6-1.2z"/><path class="a" d="m177.8 544.1h14.4v5h-8.4v4.1h7.9v4.8h-7.9v8.5h-6z"/><path class="a" d="m194.8 555.7c0-2.6 0-4.2-0.1-5.5h5.1l0.2 2.9h0.2c0.8-2.5 2.9-3.3 4.3-3.3 0.6 0 0.8 0 1.2 0.1v5.6c-0.4-0.1-0.9-0.1-1.5-0.1-1.8 0-3 0.7-3.3 2 0 0.3-0.1 0.7-0.1 1.1v8h-6z"/><path fill-rule="evenodd" class="a" d="m215.5 566.9c-4.9 0-8.7-3.1-8.7-8.4 0-5.2 3.4-8.7 9-8.7 5.2 0 8.6 3.5 8.6 8.4 0 6-4.3 8.7-8.9 8.7zm0.2-4.2c1.6 0 2.5-1.7 2.5-4.3 0-2.3-0.7-4.4-2.5-4.4-2 0-2.7 2.2-2.7 4.4 0 2.4 0.8 4.3 2.7 4.3z"/><path class="a" d="m226.9 555.8c0-2.2-0.1-4.1-0.1-5.6h5.1l0.3 2.1h0.1c0.6-0.9 2.2-2.5 4.9-2.5 3.9 0 6 2.6 6 7.1v9.6h-6.1v-8.9c0-1.9-0.6-3-2.1-3-1.1 0-1.7 0.8-1.9 1.5-0.2 0.3-0.2 0.7-0.2 1.2v9.2h-6z"/><path class="a" d="m252.8 545.5v4.7h3.4v4.4h-3.4v4.7c0 1.9 0.5 2.7 1.9 2.7 0.7 0 1 0 1.5-0.1v4.5c-0.7 0.3-2.1 0.5-3.6 0.5-1.8 0-3.2-0.6-4.1-1.5-1-1-1.5-2.6-1.5-5.1v-5.7h-2v-4.4h2v-3.1z"/><path fill-rule="evenodd" class="a" d="m263.4 560.5c0.2 1.3 2.1 2 4.2 2 1.6 0 3-0.2 4.5-0.6l0.7 4c-1.9 0.7-4 1-6.1 1-5.7 0-9-3.2-9-8.4 0-3.8 2.5-8.7 8.5-8.7 5.3 0 7.5 3.9 7.5 8.4 0 1-0.1 1.9-0.2 2.3zm4.8-4.1c0-0.9-0.4-2.7-2.3-2.7-1.8 0-2.5 1.7-2.6 2.7z"/><path class="a" d="m279.1 548.5c-1.9 0-3-1.3-3-2.8 0-1.7 1.2-2.9 3-2.9 1.9 0 3.1 1.2 3.1 2.9 0 1.5-1.2 2.8-3.1 2.8zm3.1 1.7v16.3h-6.1v-16.3z"/><path class="a" d="m285.5 555.7c0-2.6 0-4.2-0.1-5.5h5.1l0.2 2.9h0.2c0.8-2.5 2.9-3.3 4.3-3.3 0.5 0 0.8 0 1.2 0.1v5.6c-0.4-0.1-0.9-0.1-1.5-0.1-1.8 0-3 0.7-3.3 2-0.1 0.3-0.1 0.7-0.1 1.1v8h-6z"/><path class="a" d="m301.4 548.5c-1.8 0-3-1.3-3-2.8 0-1.7 1.2-2.9 3.1-2.9 1.8 0 3 1.2 3 2.9 0 1.5-1.2 2.8-3 2.8zm3 1.7v16.3h-6v-16.3z"/><path class="a" d="m320.4 566.2c-0.8 0.4-2.1 0.6-3.5 0.7l-0.6 1c1.3 0.4 2.5 1.2 2.5 2.9 0 2.4-2.3 3.2-4.2 3.2-1.1 0-2.2-0.2-3-0.7l0.7-2.3c0.4 0.3 1.3 0.5 1.8 0.5 0.6 0 1.1-0.2 1.1-0.8 0-0.5-0.6-0.9-2.6-1.1l1.3-2.9c-4.3-0.7-6.9-3.7-6.9-8.2 0-4.7 3.3-8.6 9.6-8.6 1.2 0 2.6 0.1 3.8 0.5l-0.8 4.4c-0.6-0.2-1.4-0.4-2.6-0.4-2.3 0-3.9 1.5-3.8 3.9 0 2.7 1.8 4 3.9 4q1.5 0 2.7-0.5z"/><path fill-rule="evenodd" class="a" d="m337.3 562.6c0 1.6 0.1 3.1 0.2 3.9h-5.4l-0.3-1.4h-0.1c-1.1 1.3-2.8 1.8-4.5 1.8-3.4 0-5.5-2.4-5.5-5.1 0-4.4 4-6.4 9.6-6.4v-0.1c0-0.7-0.5-1.4-2.7-1.4-1.8 0-3.6 0.6-4.7 1.2l-1-3.8c1-0.5 3.4-1.5 6.8-1.5 5.6 0 7.6 3.1 7.6 7.2zm-5.8-3.5c-2.5 0-3.9 0.7-3.9 2.2 0 1 0.7 1.5 1.7 1.5 0.9 0 1.8-0.6 2.1-1.5 0.1-0.2 0.1-0.5 0.1-0.8z"/><path class="a" d="m340.8 561.5c0.9 0.6 3 1.2 4.5 1.2 1.3 0 1.8-0.2 1.8-0.9 0-0.6-0.4-0.8-2.1-1.4-3.7-1.1-4.9-3.1-4.9-5 0-3.2 2.8-5.6 7.2-5.6 2 0 3.8 0.5 4.8 1l-0.9 4c-0.8-0.4-2.3-0.9-3.7-0.9-1 0-1.6 0.3-1.6 0.9 0 0.6 0.5 0.9 2.5 1.5 3.2 1.1 4.4 2.8 4.4 5.1 0 3.1-2.4 5.5-7.4 5.5-2.3 0-4.4-0.5-5.7-1.2z"/><path class="b" d="m194.1 190.2c-6.9-33.5-25.9-62.6-67.5-66.6 8 9.2 16.4 21 21.3 39.3 15.8 8 32.7 16.8 46.2 27.3z"/><path class="c" d="m108.8 79.3q-0.4 0-0.8 0c-6 13.6-1.9 21.6 5.7 30.3 6.6-4.4 15.8-9.1 28.2-14.1 26.1-10.7 64.9-39.2 62.2-85.5 0 42.1-43.1 70.9-95.3 69.3z"/><path class="b" d="m194.4 262c4.2 2.4 8.2 5.1 11.5 8 25.7-36 12.6-60.7-11.8-79.8 5 24.3 3.8 50.8 0.3 71.8z"/><path class="d" d="m189.8 282.7q-0.2 1.3-0.6 2.5c-1.1 3-2.6 5.4-4.2 7.5-1.6 2.1-3.4 3.9-5.1 5.6 11.2-10.2 19.7-19.6 26-28.3-3.3-2.9-7.3-5.6-11.5-8-1.3 7.8-2.9 14.8-4.6 20.7z"/><path class="c" d="m100.7 124.2c9.5-1.2 18.1-1.3 25.9-0.6-4.7-5.3-9.2-9.8-12.9-14-7.9 5.2-11.9 10-13 14.6z"/><path class="d" d="m100.7 124.2c-3.3 13.7 20.2 25 47.2 38.7-4.9-18.3-13.3-30.1-21.3-39.3-7.8-0.7-16.4-0.6-25.9 0.6z"/><path class="a" d="m352.5 111.5c-0.2-2.7-1-5.5-2.4-8.1-2.7-5.2-7.5-9.3-12.7-12.7q-2-1.3-4-2.4-2-1.2-4.1-2.3c-2.7-1.5-5.3-3.2-8.2-5-2.8-1.7-5.9-3.5-9.1-5-3.2-1.6-6.8-2.8-10.3-3.7-7.1-1.8-14.4-2.5-21.3-4-3.4-0.7-7-1.6-9.8-2.9-3.2-1.6-6.4-3.4-9.6-5.2l-4.8-2.7-2.5-1.4c-0.8-0.5-1.7-0.9-2.6-1.3-1.8-0.8-3.7-1.5-5.8-2-2.1-0.4-4.5-0.5-6.8 0.1-2.2 0.6-4.1 1.8-5.7 3-1.6 1.1-3 2.3-4.3 3.4l-2.1 1.6-1 0.8c0 0 0 0 0 0l-0.3 0.2q-0.1 0 0 0h-0.1q0.1 0 0.1 0h-0.1q0.1 0 0.1 0v-0.6q0.1-0.8 0.1-1.7c0-1.2-0.3-2.5-0.8-3.7-0.6-1.1-1.4-2.1-2.2-2.9q-0.6-0.6-1.3-1-0.6-0.5-1.4-0.8c-1-0.6-2.1-0.9-3.2-1.1-1.1-0.2-2.3-0.2-3.3 0-0.5 0-1.1 0.1-1.5 0.3q0 0 0 0c0-0.1 0 0 0 0q-0.1 0-0.1 0v-0.2q0.3-0.6 0.5-1.3c0.7-1.9 1-3.7 1.2-5.5 0.2-3.5-0.1-6.7-1-10.4-1 14.7-8.8 22.1-10.2 25.6-0.7 1.6 0.6 3.3 2.5 2.2l0.3-0.2 0.7-0.4q0.6-0.4 1.2-0.9c0.9-0.6 1.6-1 2.4-1.5 0.8-0.5 1.5-0.8 2.2-1.1l0.5-0.3q0.6-0.3 1.2-0.4c0.3-0.1 0.6-0.1 0.9-0.2q0.8-0.1 1.6 0c0.5 0.1 1 0.2 1.4 0.5q0.4 0.2 0.8 0.5 0.4 0.2 0.7 0.5c0.8 0.7 1.1 1.4 1.1 2.4q0 0.4 0 0.9c-0.1 0.2-0.1 0.3-0.1 0.6l-0.3 1.3c-0.2 0.9-0.3 1.7-0.4 2.5 0.1 0.7 0.2 1.3 0.5 1.8 0.3 0.4 0.8 1 1.4 1.3 0.5 0.3 1.1 0.5 1.8 0.5 2.2 0 4.3-0.6 6.1-1.9l0.5-0.4 1.1-0.8 2.1-1.7c2.8-2.2 5.5-4.6 8-5.3 2.4-0.7 5.5 0.2 8.6 1.6 0.8 0.4 1.5 0.7 2.3 1.1l2.4 1.3 4.8 2.7c3.2 1.8 6.4 3.7 9.8 5.4 0.8 0.4 2 0.9 2.9 1.2q1.4 0.5 2.8 0.9c1.8 0.5 3.7 0.9 5.5 1.3 7.4 1.5 14.5 2.3 21.1 3.9 3.3 0.9 6.3 1.9 9.2 3.3 3.1 1.4 5.8 3 8.6 4.7 2.8 1.7 5.5 3.5 8.3 5.1q2.1 1.2 4.1 2.3 2 1.1 3.7 2.2c4.8 3.1 8.8 6.7 10.8 10.6 1 2 1.6 4 1.7 6 0.1 0.5 0.1 0.9 0.1 1.5q0 0.8 0 1.5-0.1 0.7-0.1 1.5v0.7l-0.1 0.7q-0.3 1.4-0.5 2.7c-0.2 0.8-0.5 1.6-0.7 2.4-0.4 1.6-1.1 2.9-1.6 4.2-1.2 2.5-2.3 4.4-3.2 5.6q-0.6 1-0.9 1.5-0.3 0.4-0.3 0.4c0 0-0.5 0.7-1.4 1.9-0.8 1.3-2.2 3-4.1 5.3-1.8 2.2-4.1 5-6.8 8.2-2.6 3.2-5.6 7-8.4 11.6-0.7 1.2-1.4 2.4-2 3.7-0.6 1.3-1.2 2.6-1.7 4-1.1 2.8-1.9 5.8-2.4 8.9-1.1 6.1-1.3 12.5-2.3 18.8-1 6.3-2.5 12.9-4.8 19.3-0.6 1.6-1.2 3.2-1.8 4.8q-1.1 2.4-2.2 4.9c-1.4 3.2-2.9 6.4-4.6 9.5-3.4 6.1-7.7 11.8-13.6 14.6-0.7 0.4-1.4 0.8-2.3 1-0.7 0.2-1.5 0.5-2.4 0.8q-2.7 0.7-5.3 1.5c-3.5 0.9-7.1 1.9-10.6 3q-2.6 0.8-5.2 1.7-1.4 0.5-2.7 1l-1.4 0.6-1.2 0.7c-1.6 0.8-3.3 1.6-4.9 2.5-1.5 1-3.1 1.9-4.6 2.9q-1.2 0.9-2.3 1.7l-1.1 0.8-1 1q-1 0.9-2 1.9c-0.6 0.7-1.2 1.4-1.8 2.1-2.3 2.9-4.1 6.2-5.2 9.5-1.1 3.3-1.8 6.4-2.6 9.3q-0.6 2.2-1.2 4.3-0.4 1-0.7 1.9l-0.4 1-0.2 0.6c-0.5 1.1-0.9 2.2-1.4 3.1-1 1.9-1.7 3.4-2.4 4.4q-0.9 1.3-1.6 2.5c-0.5 0.9-1 1.7-1.5 2.5-0.9 1.6-1.7 3.1-2.4 4.6-1.5 2.9-2.6 5.9-4.3 9.3 3.2-2.2 5.5-4.5 7.8-6.9 1.1-1.3 2.2-2.6 3.4-4 0.5-0.8 1.1-1.5 1.7-2.3q0.9-1.3 1.8-2.7c0.7-1 1.6-2.8 2.7-4.8 0.5-1.1 1-2.3 1.6-3.5l0.2-0.7 0.4-1q0.4-1.1 0.8-2.2 0.7-2.3 1.3-4.6c0.8-3 1.5-6 2.5-8.9 0.9-2.9 2.4-5.4 4.2-7.8 0.5-0.6 1-1.2 1.5-1.7l1.7-1.6 0.9-0.8 0.9-0.7 2-1.5c1.3-0.9 2.8-1.8 4.2-2.7 1.5-0.8 3-1.5 4.6-2.3l1.1-0.6 1.1-0.5q1.1-0.5 2.4-0.9 2.4-0.9 5-1.6c3.4-1.1 7-2.1 10.5-3.1q2.6-0.7 5.3-1.5c0.9-0.2 1.9-0.5 2.8-0.9 1-0.2 1.9-0.7 2.9-1.1 3.7-1.9 6.9-4.6 9.5-7.5 2.6-3 4.7-6.3 6.6-9.6 1.8-3.3 3.4-6.7 4.8-10q1.1-2.5 2.2-4.9c0.7-1.8 1.4-3.5 2-5.2 2.4-6.8 4-13.7 5-20.4 1.1-6.7 1.3-13 2.3-18.6 0.5-2.8 1.1-5.4 2.1-7.8 0.4-1.3 1-2.4 1.5-3.6 0.5-1.1 1.2-2.2 1.8-3.2 2.5-4.2 5.3-7.8 7.9-11 2.6-3.2 4.9-5.9 6.8-8.2 1.9-2.3 3.4-4.1 4.3-5.5 0.9-1.3 1.4-2 1.4-2q0 0 0.4-0.5 0.3-0.5 1-1.6c0.9-1.3 2.1-3.4 3.5-6.3 0.6-1.4 1.4-3 1.9-4.8 0.3-1 0.6-1.9 0.8-2.9q0.3-1.6 0.6-3.3l0.1-0.8 0.1-0.9q0-0.9 0-1.8 0.1-0.9 0.1-1.8c0-0.6-0.1-1.3-0.1-1.9z"/><path class="b" d="m205.9 270c-6.3 8.7-14.8 18.1-26 28.3q0 0 0 0-0.2 0.1-0.3 0.2-0.8 0.8-1.7 1.5-0.3 0.3-0.7 0.6-0.1 0.1-0.2 0.1-0.5 0.5-1 0.8-0.1 0.1-0.2 0.2l-1 0.8c-1.4 1.1-5.1 3.8-6 7.4q-0.1 0.3-0.1 0.6-0.1 0.5-0.1 1.1c0 2.4 1.3 5 4.8 7.9 2.8 2.4 5.3 4.7 7.7 7.2 1.4 1.5 2.8 3.1 4.2 4.8q1.2 1.5 2.3 3.2c0.9 1.6 1.9 3.2 2.4 5.1 0.2 0.7 0.4 1.5 0.4 2.2q0 0 0 0 0.1 0.4 0 0.8c0.1 0.5-0.1 1-0.2 1.5-0.2 0.4-0.4 0.8-0.6 1.1q-0.1 0.1-0.1 0.1 0 0 0 0c15.6-11.8-23.5-37.4 5.6-46.1 25.2-7.6 22.3-19.4 10.8-29.4z"/><path class="c" d="m165.9 244.8l0.4 0.3q1 0.8 2 1.7 1.9 1.5 3.7 3.1 1 0.9 2 1.8 1.8 1.6 3.5 3.3 2.6 2.5 5 5.4 0.1 0.1 0.2 0.2c1.6 2.1 3.2 4.3 4.5 6.8 1.2 2.1 2.2 4.5 2.7 7.2q0.1 0.6 0.2 1.2 0 0 0 0 0.1 0.6 0.1 1.1 0 0.2 0.1 0.4 0 0.3 0 0.6 0 0.2 0 0.5 0 0.1 0 0.1 0 2.2-0.5 4.2c1.7-5.9 3.3-12.9 4.6-20.7q-1.7-1.1-3.6-2c-16-8.5-24.9-15.2-24.9-15.2z"/><path class="d" d="m147.9 162.9c3.4 12.7 5.2 28.4 4.1 48.5q0 0.2 0 0.3c0.1 2.4 0.2 4.8 0.2 7.1 0.2 4.7 0.6 8.9 1.9 12.5q0.8 2 1.9 3.8 1.9 3 4.9 5.6l1.2 1q0.4 0.4 0.8 0.7 0.2 0.2 0.5 0.4l0.5 0.4 2 1.6c0 0 8.9 6.7 24.9 15.2q1.9 0.9 3.6 2c3.5-21 4.7-47.5-0.3-71.8-13.5-10.5-30.4-19.3-46.2-27.3z"/><path class="c" d="m151.2 203.5q0 0 0 0c0.4 2.7 0.7 5.4 0.8 7.9q0 0 0 0c1.1-20.1-0.7-35.8-4.1-48.5-27-13.7-50.5-25-47.2-38.7-9.2 1.1-20.3 3.5-31.1 6.7q-0.1 0-0.2 0 1.1-0.2 2.3-0.4 0.1-0.1 0.3-0.1 0.2 0 0.4 0 0.2-0.1 0.4-0.1 0.2 0 0.4 0 0.3 0 0.6 0 0.1 0 0.3 0 0.4-0.1 0.9 0c0.6-0.1 1.5 0.1 2.2 0.2q0.6 0.2 1.2 0.4 0.7 0.1 1.2 0.4c1.6 0.7 3.1 1.9 4 3 1 1.2 1.7 2.3 2.3 3.2q0.4 0.8 0.7 1.5 0.3 0.6 0.7 1.3 0.3 0.6 0.5 1.2 0.8 1.6 1.6 3 0.7 1.2 1.5 2.3 0.7 0.9 1.5 1.8c2.1 2.4 4.8 4.4 8 6q2.7 1.3 5.5 2.7 1.4 0.7 2.9 1.4 1.5 0.8 3 1.6c2 1 4 2.1 6 3.3q1.5 0.8 3 1.7 1.5 1 3 1.9 3 1.9 5.9 4.2 2.9 2.2 5.7 4.7 1.4 1.3 2.8 2.7 0.6 0.6 1.2 1.2 0.2 0.2 0.3 0.4 0.5 0.5 0.9 1 0.2 0.2 0.3 0.4 1.2 1.3 2.3 2.8 0.1 0.2 0.3 0.4 0.4 0.6 0.7 1.1 0.2 0.3 0.3 0.5 0.5 0.7 1 1.5c2.8 4.7 4.8 10.1 5.7 15.4z"/><path class="e" d="m100.7 124.2c1.1-4.6 5.1-9.4 13-14.6-7.6-8.7-11.7-16.7-5.7-30.3-70.6-3.8-88.4 52-63.3 57.5 0.7 0.2 1.5 0.3 2.2 0.4 0.5 0 0.8 0 1.2 0 0.4 0 0.8 0 1.3 0q1.9-0.2 4.2-0.7 0.4-0.1 0.7-0.2 0.7-0.2 1.3-0.3c2.3-0.7 4.8-1.7 7.6-2.9q1.1-0.4 2.3-0.9 0.3-0.1 0.6-0.3 0.3-0.1 0.7-0.2 0.7-0.2 1.4-0.5 0 0 0 0 0.7-0.1 1.4-0.3 0 0 0 0c10.8-3.2 21.9-5.6 31.1-6.7z"/><path class="f" d="m49.1 40.6q0 0 0 0 0 0 0 0z"/><path class="f" d="m44.4 136.8q0.1 0 0.3 0c-25.1-5.5-7.3-61.3 63.3-57.5q0.5-1.4 1.3-2.8c11.9-23.6 44.9-37.3 51.1-39.7q-0.3 0.1-0.6 0.2c-0.4 0.2-0.8 0.3-1.3 0.5q-0.8 0.4-1.8 0.8-0.4 0.1-0.8 0.3-0.2 0.1-0.4 0.2-0.4 0.1-0.8 0.2l-0.3 0.1-0.4 0.2-0.3 0.1q-0.3 0.1-0.6 0.2-0.5 0.1-0.9 0.3 0 0 0 0-1.6 0.5-3.3 0.9c-1.8 0.4-3.8 0.7-5.9 0.7q-0.2 0-0.3 0-0.7 0-1.4 0-1.5-0.1-3.2-0.5 0 0 0 0-1.5-0.3-3-1-0.1 0-0.2 0-0.7-0.4-1.4-0.8-0.1 0-0.2-0.1-0.4-0.2-0.7-0.5c-2.8-1.8-4.8-4.5-5.9-7.1-2.4-5.2-2.8-10.1-3.4-14.5q-0.2-1.6-0.4-3.2l-0.1-0.7v0.1h-0.1l-0.2 0.2h-0.1l-0.1 0.1-0.2 0.1-0.5 0.3-1.3 0.7q0 0 0 0-0.9 0.5-1.9 0.9 0 0 0 0 0 0 0 0-0.6 0.3-1.2 0.6-0.2 0-0.3 0.1-0.7 0.3-1.3 0.5 0 0 0 0-0.7 0.2-1.3 0.5-0.2 0-0.4 0.1-0.6 0.2-1.3 0.4-0.4 0.1-0.7 0.2-0.2 0-0.3 0-0.7 0.2-1.5 0.4-0.7 0.1-1.5 0.3 0 0 0 0-1 0.1-2 0.3 0 0 0 0-1.1 0.1-2.1 0.2-1.4 0.1-2.9 0.1-0.5 0-1 0h-2.9v0.1l0.4 0.9c0.1 0.4 0.2 0.6 0.3 1.1q0 0 0 0 0.1 0.5 0.2 1 0 0.1 0 0.2 0.1 0.5 0.2 1 0 0.1 0 0.2 0.1 0.5 0.1 1 0 0.1 0 0.2 0 0.5 0 1.1 0 0 0 0 0 0.5-0.1 1 0 0.1 0 0.2 0 0.5-0.1 1 0 0.1 0 0.2-0.1 0.5-0.2 1 0 0.1 0 0.2-0.3 1.1-0.7 2.2 0 0 0 0-0.5 1.3-1.1 2.4-1.2 2.4-3 4.2-0.9 1-1.9 1.8c-2.6 2.1-5.8 3.6-9 4.2q-0.8 0.2-1.5 0.3c-2.5 0.3-5 0.2-7.2-0.1q-0.4-0.1-0.8-0.2 0 0 0 0-0.8-0.1-1.5-0.3-0.1 0-0.3-0.1-1.4-0.3-2.7-0.7-0.2-0.1-0.3-0.1c-2.4-0.8-4.6-1.7-6.6-2.5q-0.8-0.3-1.6-0.6 0 0 0 0-0.8-0.3-1.6-0.5 0 0 0 0 0 0 0 0-0.7-0.3-1.4-0.5-0.4-0.1-0.7-0.2-0.1 0-0.2 0-0.2-0.1-0.4-0.2-0.1 0-0.2 0-0.6-0.2-1.2-0.2 0 0-0.1-0.1-0.2 0-0.4 0-0.1 0-0.2 0-0.2 0-0.5 0c-0.7 0-1.3 0-1.8 0.2-0.4 0.1-0.8 0.3-1.2 0.6q-0.3 0.3-0.7 0.6l-0.3 0.4q-0.1 0.1-0.2 0.2c0 0.1-0.1 0.2-0.1 0.2l-0.2 0.3q-0.2 0.6-0.4 1.2c-0.5 1.6-0.9 3.5-1 5.6-0.4 4-0.2 8.6-0.3 13.2q0 0.1 0 0.1c0 3.8-0.2 7.8-1.1 11.9q0 0 0 0-0.1 0.5-0.2 0.9 0 0.2-0.1 0.4-0.1 0.3-0.1 0.6-0.2 0.4-0.3 0.9l-0.6 1.9-0.8 1.8c-0.3 0.6-0.5 1.3-0.8 1.9l-1.1 1.7q-0.6 0.9-1.2 1.7-0.7 0.9-1.4 1.6c-0.9 1-1.9 1.9-2.9 2.8-4.2 3.1-8.3 4.8-11.4 6.5q-1.9 1-3.5 2.1-1.1 0.8-2 1.6-0.9 0.9-1.8 1.9-0.6 0.8-1.2 1.6-0.5 1-1.1 1.9c-0.3 0.5-0.6 1.3-0.9 1.9-0.3 0.6-0.5 1.3-0.7 1.9q-0.6 1.9-0.8 3.7-0.1 0.8-0.1 1.7 0 0.8 0.1 1.6 0.2 0.8 0.4 1.5 0.4 1.5 1.1 2.9 0.3 0.7 0.7 1.3 0 0 0 0 0.4 0.6 0.9 1.1 0.1 0.2 0.2 0.4 0.3 0.4 0.7 0.7 0.1 0.2 0.2 0.3 0.5 0.5 1 1 0 0 0 0 0.4 0.5 0.9 0.9 0.2 0.2 0.3 0.3 0.4 0.3 0.8 0.6 0.1 0.1 0.3 0.3 0.5 0.3 1 0.7 0 0 0 0 1.1 0.8 2.2 1.5 0 0 0 0 0.5 0.3 0.9 0.6 0.2 0.1 0.3 0.2 0.3 0.1 0.6 0.3 1.9 1 3.4 1.7c0.7 0.4 1.4 0.7 1.9 0.9q1.3 0.6 2 0.8 0.7 0.3 0.7 0.3 0 0 0.2 0.1 0.1 0 0.1 0 0.1 0.1 0.2 0.1 0.1 0 0.2 0.1 0 0 0.1 0 0.1 0 0.2 0.1 0.1 0 0.2 0 0.1 0.1 0.2 0.1 0.1 0 0.2 0.1 0.5 0.2 1.2 0.4 0 0 0 0 0.3 0.1 0.6 0.2 0.1 0 0.2 0 0.3 0.1 0.5 0.2 0.2 0 0.3 0.1 0.7 0.2 1.6 0.4 0.2 0.1 0.3 0.1 0.3 0.1 0.7 0.2 0.1 0 0.3 0.1 0.4 0.1 0.9 0.2 0.1 0 0.1 0 1.1 0.3 2.4 0.5z"/><path class="e" d="m203.1 14q-0.1 0.7-0.3 1.4c-0.7 1.7-1.2 3.4-2 5-0.8 1.7-1.8 3.3-3 4.9q-0.6 0.7-1.3 1.4-0.7 0.7-1.5 1.5-0.2 0.1-0.3 0.2-0.5 0.4-1 0.8-0.9 0.7-1.9 1.2-0.7 0.4-1.4 0.7-0.7 0.3-1.5 0.6-0.7 0.3-1.5 0.5-0.7 0.3-1.4 0.4-1.2 0.3-2.3 0.5-0.4 0.1-0.9 0.2-0.3 0-0.6 0.1-2.2 0.3-4.3 0.5-0.8 0-1.6 0.1-0.8 0-1.5 0.1-2.2 0.2-4.5 0.4-1.2 0.1-2.8 0.4-1 0.2-2.2 0.4-1.2 0.3-2.6 0.7-0.6 0.2-1.3 0.4-0.4 0.2-0.9 0.3-0.1 0.1-0.1 0.1c-6.2 2.4-39.2 16.1-51.1 39.7q-0.8 1.4-1.3 2.8 0.4 0 0.8 0c52.2 1.6 95.3-27.2 95.3-69.3q-0.5 2-1 4z"/><path class="e" d="m204.1 10q0 0 0 0 0 0 0 0z"/><path class="a" d="m204.1 10c-4.7 5.9-9.6 10.1-14.4 11.8-2.5 0.7-5.1 0.9-8.4 0.9-3.3 0.1-7.3-0.2-12.2 0.3-2.6 0.2-6.6 0.9-11.4 2.5q-1.8 0.6-3.7 1.4c-1.2 0.4-2.2 0.8-3.3 1.2l-0.2 0.1-0.5 0.2c-0.4 0.1-0.9 0.3-1.3 0.4q-1.2 0.4-2.3 0.6c-1.6 0.4-3.1 0.5-4.4 0.5-1.3-0.1-2.2-0.4-2.9-0.9-0.7-0.4-1.3-1.2-1.9-2.5-1.3-2.6-1.9-6.5-2.3-10.8q-0.2-1.7-0.4-3.5l-0.2-1c-0.1-0.5-0.1-1-0.3-1.6-0.2-1.1-0.4-2.2-0.8-3.2-0.8-2-1.9-3.7-3.5-4.8-1.6-1.2-3.6-1.7-5.6-1.6-3.9 0.2-8.4 4.2-9.3 4.3q-2.5 1.4-5.3 2.2c-1.9 0.5-3.8 0.8-5.9 1q-1.5 0.1-3.2 0.1-2.1 0-4.2 0c-2.4 0.1-4.8 0.3-6.6 1.2-0.9 0.4-1.7 1-2.4 1.7-0.7 0.7-1.3 1.7-1.6 2.6-0.8 1.9-0.8 4-0.1 6.3 0.1 0.5 0.3 1.1 0.5 1.7l0.6 1.5 0.3 0.8c0.1 0.2 0.2 0.6 0.2 0.7 0.6 2.3-0.3 5.2-2.7 7.1-1.1 0.9-2.5 1.5-4 1.9-1.5 0.3-3.1 0.3-5-0.1-3.7-0.7-7.9-2.7-12.9-4.4-2.5-0.8-5.3-1.7-8.7-1.8-1.7-0.1-3.5 0.1-5.4 0.6-1.8 0.6-3.5 1.5-5 2.6-0.7 0.5-1.3 1.1-1.9 1.7l-0.9 0.9c-0.3 0.3-0.4 0.5-0.8 1-0.4 0.5-0.8 0.9-1 1.5l-0.5 1.3q-0.5 1-0.8 2.1c-0.9 2.8-1.4 5.6-1.6 8.1-0.4 5.2-0.2 9.9-0.3 14.2 0 4.3-0.2 8.3-1.3 11.5-1 3.4-2.5 5.8-4.9 7.7-2.4 1.9-5.9 3.4-9.7 5.4-3.8 2-7.8 4.8-10.7 8.4q-1 1.3-2 2.7-0.8 1.4-1.6 2.8c-0.6 0.9-0.9 1.9-1.3 2.8-0.5 0.9-0.8 1.9-1.1 2.9-1.3 3.9-1.8 8.1-1.2 12.1 0.5 4 2.1 7.6 4 10.4 1.8 2.9 4 5.1 6 6.9 2.1 1.8 4.1 3.2 5.9 4.4 3.7 2.3 6.7 3.6 8.8 4.5q1.5 0.7 2.4 1 0.8 0.3 0.8 0.3c0 0 1.1 0.4 3.2 1.1 2.1 0.7 5.2 1.7 9.5 2.5 1.1 0.1 2.2 0.3 3.5 0.4 0.6 0.1 1.4 0.1 2.2 0.2 0.6-0.1 1.4 0 2.1-0.1 2.9-0.2 5.8-0.8 8.7-1.7 2.9-0.9 5.9-2 8.7-3.2q1-0.4 2.1-0.9c0.7-0.2 1.2-0.4 1.8-0.6 1.2-0.3 2.4-0.5 3-0.5 0.2 0 0.2 0 0.3 0 0 0.1 0 0 0 0 0 0.1 0 0 0.2 0.2 0.3 0.3 1.1 1.7 1.9 3.3 1.5 3.3 3.7 7.5 6.8 11 3.2 3.5 7.1 6.4 11.3 8.6q2.9 1.4 5.8 2.8 1.4 0.7 2.9 1.4 1.3 0.7 2.7 1.4c1.9 1 3.8 2 5.6 3.1q1.4 0.8 2.8 1.6 1.3 0.8 2.6 1.7c3.6 2.3 7.1 4.9 10.2 7.8 3.1 2.8 5.9 6 8 9.4 2.1 3.5 3.4 7.3 4.1 11.4 0.7 4.1 0.8 8.6 0.9 13.7 0.2 4.9 0.6 10.6 2.7 16.1 1 2.8 2.4 5.4 4.1 7.8q1.3 1.7 2.7 3.3c1 1 2 2.1 3 3l1.6 1.3c0.5 0.4 1.1 0.9 1.5 1.2l2.8 2.2q2.7 2.2 5.3 4.5c3.5 3 6.7 6.2 9.4 9.4 2.6 3.2 4.6 6.6 4.9 9.4 0.2 1.4 0 2.7-0.4 4-0.5 1.4-1.3 2.8-2.4 4.2-1.1 1.4-2.4 2.8-3.8 4.1-0.7 0.7-1.5 1.3-2.3 2-0.3 0.3-0.7 0.6-1.1 0.9l-0.9 0.7q-3.3 2.5-6.5 4.6-1.7 1.1-3.3 2.2-0.4 0.2-0.8 0.5c-0.2 0.1-0.2 0.1-0.5 0.3l-0.7 0.6q-0.6 0.5-1.3 1.1c-0.4 0.4-0.7 0.8-1 1.3-0.7 0.8-1.1 1.8-1.5 2.7-0.2 1-0.5 2-0.4 2.9-0.1 2 0.6 3.8 1.3 5.3q0.3 0.6 0.6 1.1 0.3 0.4 0.6 0.8c0.1 0.3 0.4 0.7 0.5 0.8q0.3 0.3 0.5 0.6c0.6 0.8 1.2 1.4 1.6 1.9 3.7 3.7 7 5.9 10.2 8 3.1 2.1 6 3.7 8.8 5.3 2.9 1.6 5.6 3.1 8.3 4.8 1.3 0.9 2.6 1.8 3.6 2.9 1.1 1.2 2.1 2.6 1.8 4.5 0.2-0.4 0.5-0.8 0.7-1.2 0.1-0.5 0.3-1 0.2-1.5 0.1-1-0.1-2.1-0.4-3-0.5-1.9-1.5-3.5-2.4-5.1-2-3-4.2-5.6-6.5-8-2.4-2.5-4.9-4.8-7.7-7.2-10.4-8.3-1.1-15.1 1.4-17l1-0.8c0.5-0.4 0.9-0.7 1.4-1.1 0.9-0.8 1.8-1.5 2.7-2.3 1.7-1.7 3.5-3.5 5.1-5.6 1.6-2.1 3.1-4.5 4.2-7.5 1-2.8 1.4-6.2 0.9-9.4-0.4-3.1-1.5-6-2.9-8.4-1.3-2.5-2.9-4.7-4.5-6.8-3.3-4-7-7.4-10.7-10.7q-2.8-2.5-5.7-4.8l-2.9-2.3c-0.5-0.4-0.9-0.7-1.3-1.1l-1.2-1q-4.7-4.1-6.8-9.4c-1.3-3.6-1.7-7.8-1.9-12.5-0.1-4.7-0.1-9.9-1-15.3-0.9-5.3-2.9-10.7-5.7-15.4-2.8-4.6-6.3-8.6-10.1-12-3.7-3.4-7.6-6.3-11.6-8.9q-1.5-0.9-3-1.9-1.5-0.9-3-1.7c-2-1.2-4-2.3-6-3.3q-1.5-0.8-3-1.6-1.5-0.7-2.9-1.4-2.8-1.4-5.5-2.7c-3.2-1.6-5.9-3.6-8-6-2.1-2.4-3.6-5-5.1-8.3-0.5-0.9-0.9-1.8-1.4-2.8-0.6-0.9-1.3-2-2.3-3.2-0.9-1.1-2.4-2.3-4-3-0.7-0.4-1.6-0.6-2.4-0.8-0.7-0.1-1.6-0.3-2.2-0.2-2.8-0.1-4.9 0.4-6.8 0.9-1 0.3-1.9 0.7-2.7 1q-1.2 0.5-2.3 0.9c-2.8 1.2-5.3 2.2-7.6 2.9q-3.5 1-6.2 1.2c-0.5 0-0.9 0-1.3 0-0.4 0-0.7 0-1.2 0-0.8-0.1-1.7-0.3-2.5-0.4-3.4-0.6-6.1-1.4-7.9-2-1.8-0.6-2.8-1-2.8-1q0 0-0.7-0.3-0.7-0.2-2-0.8c-1.7-0.7-4.2-1.9-7.1-3.7-2.9-1.8-6.2-4.4-8.5-7.8-2.2-3.4-3.1-7.6-1.4-12.7 0.2-0.6 0.4-1.3 0.7-1.9 0.3-0.6 0.6-1.4 0.9-1.9q0.6-0.9 1.1-1.9 0.6-0.8 1.2-1.6c1.8-2.2 4.1-3.9 7.3-5.6 3.1-1.7 7.2-3.4 11.4-6.5 2-1.7 4-3.7 5.5-6.1l1.1-1.7c0.3-0.6 0.5-1.3 0.8-1.9l0.8-1.8 0.6-1.9c1.6-5.1 1.8-10.1 1.8-14.8 0.1-4.6-0.1-9.2 0.3-13.2 0.1-2.1 0.5-4 1-5.6q0.2-0.6 0.4-1.2l0.2-0.3q0 0 0 0c-0.1 0 0-0.1 0.1-0.2q0.1-0.1 0.2-0.2l0.3-0.4q0.4-0.3 0.7-0.6c0.9-0.7 1.6-0.8 3-0.8 1.4 0 3.3 0.5 5.3 1.2 4.2 1.4 8.8 3.7 14.6 4.8 2.9 0.6 6.2 0.7 9.5 0 3.2-0.6 6.4-2.1 9-4.2 2.6-2.2 4.8-5 6-8.4 1.2-3.2 1.5-7 0.6-10.5-0.1-0.5-0.2-0.7-0.3-1.1l-0.4-0.9v-0.1q0 0 0 0 0 0 0 0 0 0.1 0 0h2.9q1.9 0 3.9-0.1c2.7-0.3 5.5-0.7 8.1-1.4 2.7-0.8 5.3-1.8 7.7-3.1l1.8-1 0.2-0.1 0.2-0.1 0.2-0.2 0.2-0.1q0 0 0 0-0.1 0-0.1 0v-0.1l0.1 0.8q0.2 1.6 0.4 3.2c0.6 4.4 1 9.3 3.4 14.5 1.1 2.6 3.1 5.3 5.9 7.1 2.8 1.9 6 2.7 8.7 2.9 2.8 0.1 5.3-0.2 7.6-0.7q1.7-0.4 3.3-0.9c0.5-0.2 1-0.4 1.5-0.5l0.7-0.3 0.3-0.1c1.3-0.5 2.7-1 3.8-1.5q1.5-0.6 2.9-1.1c3.7-1.1 6.8-1.7 8.9-1.9 4-0.5 7.9-0.5 11.9-1.1 4-0.6 8.2-1.8 11.5-4.2 3.3-2.5 5.5-5.6 7.1-8.8 0.8-1.6 1.3-3.3 2-5q0.7-2.7 1.3-5.4z"/></svg>