<svg version="1.2" xmlns="http://www.w3.org/2000/svg" viewBox="0 0 2560 307" width="2560" height="307"><defs><clipPath clipPathUnits="userSpaceOnUse" id="cp1"><path d="m2560-38v358h-2560v-358z"/></clipPath></defs><style>.a{fill:#43bac2}.b{fill:#1f62aa}.c{fill:#0397ce}.d{fill:#3a2e86}.e{fill:#80d8c9}.f{fill:none;stroke:#fff;stroke-miterlimit:10}</style><g clip-path="url(#cp1)"><path class="a" d="m548.5 151.1c-26.3 6.7-54.5 15.9-85 28.3-132.1 53.6-311.4 43.2-463.5-0.4v40.5c161.4 16.3 660.5 59.8 1014.8 17.2-43-10.2-81.1-23.4-117-36.9-125 10.1-241.1 4.8-349.3-48.7z"/><path class="a" d="m1781.8 193.9c-33 11.3-65.7 20.2-98.2 27.1 129.8 18.2 249.1 36.7 418.3 13.1q33.2-4.6 63.6-9.5c-30-9.4-57.5-20.8-84.7-32.4-81.7 9.4-179.2 11.5-299 1.7z"/><path class="b" d="m1921.9 138.6c-77.1-13.7-174.5-10.1-319.7 33.8 65 10 124.6 17 179.6 21.5 22.8-7.8 45.8-16.7 68.9-26.8 21.7-9.5 45.6-19 71.2-28.5z"/><path class="a" d="m1197.9 232.6c-39 1.1-76.8-1.1-113.2-5.8-22.5 3.7-45.9 7-69.9 9.9 90.9 21.5 203.7 29.4 363.5-2.8-24.8-2.7-49.5-6.1-74-10.1-33.1 4.6-68.3 7.6-106.4 8.8z"/><path class="a" d="m2165.5 224.6c16.2 5 33.1 9.4 51.1 13 97.6 19.1 265.7-15.7 343.4-18.3v-40.5c-57.1-13.6-177.4 11.1-394.5 45.8z"/><path class="c" d="m456.2 104.3c-33.1 8.6-65.4 14.6-96.8 18.6-128 85.5-277.6 55.3-359.4 27.7v28.4c152.1 43.6 331.4 54 463.5 0.4 30.5-12.4 58.7-21.7 85-28.3q-9.7-4.8-19.2-10.1c-24.4-13.5-48.8-25.7-73.1-36.7z"/><path class="d" d="m415.8 75.7q-4 4.1-8 8c16 6.4 32.2 13.2 48.4 20.6q11.8-3 23.7-6.5c58.8-17.3 119.8-21.6 182.9-17.5-104.4-44.9-186.3-67.2-247-4.6z"/><path class="c" d="m943.3 195.5q-22.9 2.4-45.5 4.3c35.9 13.5 74 26.7 117 36.9 24-2.9 47.4-6.2 69.9-9.9-49.5-6.4-96.7-17.5-141.4-31.3z"/><path class="c" d="m2560 150.6c-27.8-14-91.3-42.7-119.1-46.6-98.8 40.7-170.1 66.3-360.1 88.2 27.2 11.6 54.7 23 84.7 32.4 217.1-34.7 325.1-57.6 394.5-45.8z"/><path class="a" d="m1378.3 233.9c98.6 10.7 200.3 9.6 305.3-12.9-54.8-7.6-111.4-15.2-174.5-19.6-46.9 13.7-90.3 24.4-130.8 32.5z"/><path class="c" d="m548.5 151.1c108.2 53.5 224.3 58.8 349.3 48.7-111.5-42-201.2-86.4-349.3-48.7z"/><path class="c" d="m1850.7 167.1c-23.1 10.1-46.1 19-68.9 26.8 119.8 9.8 217.3 7.7 299-1.7-49.4-21.1-97.8-42.8-158.9-53.6-25.6 9.5-49.5 19-71.2 28.5z"/><path class="c" d="m1602.2 172.4q-15.8 4.7-32.5 10.2c-20.8 6.8-41 13-60.6 18.8 63.1 4.4 119.7 12 174.5 19.6 32.5-6.9 65.2-15.8 98.2-27.1-55-4.5-114.6-11.5-179.6-21.5z"/><path class="c" d="m1429.2 197.8c-39 10.8-80 19.8-124.9 26 24.5 4 49.2 7.4 74 10.1 40.5-8.1 83.9-18.8 130.8-32.5-25.5-1.8-52-3.1-79.9-3.6z"/><path class="b" d="m359.4 122.9c31.4-4 63.7-10 96.8-18.6-16.2-7.4-32.4-14.2-48.4-20.6-15.7 15.2-31.8 28.2-48.4 39.2z"/><path class="b" d="m1538.6 162.9c-35.7 12.6-71.6 24.6-109.4 34.9 27.9 0.5 54.4 1.8 79.9 3.6 19.6-5.8 39.8-12 60.6-18.8q16.7-5.5 32.5-10.2-12.1-1.9-24.6-3.9-19.6-3.2-39-5.6z"/><path class="b" d="m1921.9 138.6c61.1 10.8 109.5 32.5 158.9 53.6 190-21.9 261.3-47.5 360.1-88.2-82.5-11.6-124.1-54.4-191.9-58.4-119.4 25.5-234.6 58.8-327.1 93z"/><path class="c" d="m1090.8 225.8q-3 0.5-6.1 1c36.4 4.7 74.2 6.9 113.2 5.8 38.1-1.2 73.3-4.2 106.4-8.8-28.2-4.7-56.2-10.1-83.9-16.1-40.4 4.3-83.5 10.3-129.6 18.1z"/><path class="b" d="m2440.9 104c27.8 3.9 90.6 36.3 119.1 46.6v-59.4c-34.3-10.1-90.6 1-119.1 12.8z"/><path class="b" d="m1220.4 207.7c-42.6-9.3-84.5-19.8-125.8-30.8-51.8 6.7-102.3 13.5-151.3 18.6 44.7 13.8 91.9 24.9 141.4 31.3q3.1-0.5 6.1-1c46.1-7.8 89.2-13.8 129.6-18.1z"/><path class="b" d="m359.4 122.9c-170.1 21.9-309.5-15.5-359.4-31.8v59.5c81.8 27.6 231.4 57.8 359.4-27.7z"/><path class="b" d="m1220.4 207.7c27.7 6 55.7 11.4 83.9 16.1 44.9-6.2 85.9-15.2 124.9-26-61.8-1.1-130.3 1.4-208.8 9.9z"/><path class="d" d="m662.8 80.3c80.1 34.5 173.5 82.4 280.5 115.2 49-5.1 99.5-11.9 151.3-18.6-153.3-40.8-297.3-87.8-431.8-96.6z"/><path class="d" d="m359.4 122.9c16.6-11 32.7-24 48.4-39.2-170.4-67.5-328.8-81.1-407.8-83.2v90.6c49.9 16.3 189.3 53.7 359.4 31.8z"/><path class="d" d="m2560 0.4c-98.5 6.2-206.3 22.7-311 45.2 67.8 4 109.4 46.8 191.9 58.4 28.5-11.8 80-20.5 119.1-12.8z"/><path class="d" d="m1921.9 138.6c92.5-34.2 207.7-67.5 327.1-93-365-21.7-535.5 55.4-710.4 117.3q19.4 2.4 39 5.6 12.5 2 24.6 3.9c145.2-43.9 242.6-47.5 319.7-33.8z"/><path class="d" d="m1094.6 176.9c41.3 11 83.2 21.5 125.8 30.8 78.5-8.5 147-11 208.8-9.9 37.8-10.3 73.7-22.3 109.4-34.9-159-20-306.6-3.6-444 14z"/><path class="e" d="m2216.6 237.6c-18-3.6-34.9-8-51.1-13q-30.4 4.9-63.6 9.5c-169.2 23.6-288.5 5.1-418.3-13.1-105 22.5-206.7 23.6-305.3 12.9-159.8 32.2-272.6 24.3-363.5 2.8-354.3 42.6-853.4-0.9-1014.8-17.2v75.5c130.7 13.5 518.8 23.4 834.9-20.1 280.2-38.6 274.4 31.3 602.1-2.8 272.6-28.3 284.5 17.1 606.2-5.4 243.2-17 465.1 26.8 516.8 28.9v-76.1c-121.1-3-245.8 37.2-343.4 18.1z"/><path class="b" d="m479.9 97.8q-11.9 3.5-23.7 6.5c24.3 11 48.7 23.2 73.1 36.7q9.5 5.3 19.2 10.1c148.1-37.7 237.8 6.7 349.3 48.7q22.6-1.9 45.5-4.3c-107-32.8-200.4-80.7-280.5-115.2-63.1-4.1-124.1 0.2-182.9 17.5z"/><path class="f" d="m2560 295.4c-78.5-5.7-273.6-45.7-516.8-28.7-321.7 22.5-333.6-22.9-606.2 5.4-327.7 34.1-321.7-34.3-602.1 2.8-423.1 56-834.9 20.3-834.9 20.3l-156-107.9 72-462.1 1850.1-103.6 823.3 100.9 187 403.1c0 0-137.9 175.5-216.4 169.8z"/><path class="f" d="m-52.6 213.9c0 0 720 83.7 1143.4 11.9 512.2-86.9 644.4 59.4 1011.1 8.3 260.8-36.4 386.2-70.1 458.1-55.3 43.8 9 55.3-96.3 55.3-96.3l-71-215.9-2033.4 23.7-563.5 9z"/><path class="f" d="m-146.8-193.4c0 0-181.6 143.8-135.1 210.5 99.6 143 502.4 260.9 745.4 162.3 415.1-168.3 404.2 232.7 1106.2 3.2 386.2-126.3 452.1 16.8 646.9 55 97.6 19.1 234.4-22.2 343.4-17.9 123 4.8 195.9-182.2 195.9-182.2l-266.2-252.7c0 0-335-94.6-347.7-94.6-12.8 0-1081.4 10.9-1081.4 10.9z"/></g></svg>