<?xml version="1.0" encoding="UTF-8"?><svg id="a" xmlns="http://www.w3.org/2000/svg" viewBox="0 0 332.47 327.41"><path d="M182.36,180.26c-6.58-31.77-24.52-59.36-63.93-63.14,7.6,8.69,15.5,19.93,20.17,37.23,14.93,7.58,30.98,15.92,43.76,25.9Z" style="fill:#80d8c9; stroke-width:0px;"/><path d="M101.51,75.11c-.25,0-.49,0-.74-.01-5.61,12.88-1.8,20.47,5.41,28.74,6.24-4.15,15-8.58,26.77-13.39,24.66-10.08,61.41-37.14,58.88-81,0,39.88-40.79,67.24-90.32,65.66Z" style="fill:#0397ce; stroke-width:0px;"/><path d="M182.66,248.21c3.98,2.31,7.73,4.88,10.84,7.59,24.34-34.04,11.97-57.49-11.14-75.54,4.75,22.95,3.59,48.06.31,67.95Z" style="fill:#80d8c9; stroke-width:0px;"/><path d="M178.32,267.88h0c-.17.81-.38,1.62-.65,2.39-.95,2.77-2.4,5.08-3.93,7.07-1.54,1.99-3.19,3.74-4.87,5.27h0c10.65-9.61,18.73-18.52,24.65-26.8-3.1-2.71-6.86-5.29-10.84-7.59-1.22,7.41-2.73,14.09-4.34,19.67Z" style="fill:#43bac2; stroke-width:0px;"/><path d="M93.85,117.65c9-1.11,17.17-1.24,24.58-.53-4.42-5.06-8.73-9.26-12.25-13.29-7.46,4.96-11.3,9.51-12.33,13.81Z" style="fill:#0397ce; stroke-width:0px;"/><path d="M93.85,117.65c-3.12,12.96,19.16,23.72,44.75,36.71-4.67-17.3-12.57-28.54-20.17-37.23-7.41-.71-15.58-.58-24.58.53Z" style="fill:#43bac2; stroke-width:0px;"/><path d="M332.36,105.63c-.23-2.5-.97-5.18-2.27-7.63-2.6-4.99-7.12-8.88-12.03-12.06-1.23-.81-2.51-1.57-3.8-2.31-1.27-.71-2.57-1.43-3.87-2.16-2.51-1.42-5.05-3.05-7.74-4.72-2.67-1.65-5.59-3.36-8.61-4.76-3.08-1.52-6.45-2.63-9.8-3.47-6.73-1.69-13.6-2.39-20.18-3.76-3.24-.7-6.6-1.52-9.28-2.82-2.98-1.49-6.04-3.24-9.07-4.93l-4.56-2.57-2.32-1.28c-.81-.46-1.68-.85-2.52-1.24-1.7-.77-3.49-1.45-5.49-1.87-1.96-.43-4.25-.52-6.4.09-2.15.59-3.92,1.7-5.41,2.78-1.5,1.09-2.83,2.2-4.13,3.26l-1.93,1.55-.96.75s0,0-.02.01l-.29.12s-.02.01-.03.01h0s0,.01,0,.01v.02s0,0,0,0v-.02s0,0,0-.01l.08-.58c.05-.52.09-1.05.07-1.61-.03-1.11-.27-2.33-.79-3.43-.51-1.1-1.27-2.05-2.07-2.78-.4-.37-.81-.68-1.23-.96-.4-.3-.84-.57-1.32-.8-.92-.5-1.98-.83-3.04-1.02-1.07-.16-2.14-.17-3.14-.02-.49.07-1.03.17-1.42.29-.01.01,0,0,0,0,.05-.03.03,0,0,.02,0,0-.04.02-.07,0l-.02-.02.05-.16c.16-.41.31-.81.46-1.2.64-1.84.95-3.55,1.09-5.21.27-3.31-.08-6.42-.92-9.94-.91,13.95-8.35,20.96-9.7,24.3-.6,1.49.63,3.12,2.45,2.07l.29-.19.58-.39c.39-.26.78-.52,1.17-.79.82-.57,1.52-.99,2.25-1.43.76-.5,1.41-.79,2.1-1.11l.49-.24c.38-.17.75-.3,1.11-.39.35-.11.57-.13.85-.18.53-.08,1.02-.07,1.5,0,.47.1.94.22,1.41.48.23.11.47.24.7.43.25.16.47.33.65.5.74.7,1.02,1.29,1.07,2.3.01.25,0,.53-.04.83-.03.19-.04.31-.09.6l-.25,1.21c-.2.82-.32,1.61-.33,2.32.04.68.19,1.22.45,1.69.23.44.73.99,1.26,1.28.51.3,1.06.43,1.71.46,2.17,0,4.16-.58,5.84-1.77l.48-.37,1.03-.8,2.01-1.61c2.62-2.11,5.17-4.38,7.52-4.99,2.29-.67,5.23.15,8.17,1.49.73.34,1.45.65,2.16,1.06l2.25,1.25,4.56,2.56c3.07,1.71,6.08,3.43,9.33,5.06.78.39,1.85.87,2.69,1.13.89.32,1.78.61,2.65.85,1.76.53,3.51.92,5.25,1.29,6.97,1.43,13.74,2.14,19.96,3.71,3.12.78,6.03,1.75,8.77,3.1,2.86,1.32,5.45,2.84,8.09,4.47,2.62,1.62,5.23,3.3,7.92,4.82,1.3.72,2.58,1.44,3.85,2.14,1.23.7,2.42,1.41,3.54,2.15,4.53,2.91,8.24,6.28,10.16,10,.97,1.86,1.49,3.74,1.68,5.64.02.49.09.93.09,1.45-.02.48-.04.96-.06,1.43-.02.47-.03.93-.05,1.39l-.03.68-.12.66c-.15.88-.3,1.73-.44,2.55-.18.81-.46,1.57-.67,2.32-.37,1.5-1.07,2.79-1.54,3.99-1.13,2.34-2.17,4.13-2.96,5.31-.38.6-.67,1.05-.87,1.36-.2.31-.32.46-.32.46,0,0-.44.62-1.28,1.78-.81,1.17-2.15,2.84-3.88,4.98-1.78,2.14-3.96,4.76-6.46,7.77-2.5,3.09-5.35,6.65-7.98,11.05-.61,1.13-1.32,2.24-1.88,3.47-.54,1.24-1.15,2.47-1.65,3.79-1.04,2.64-1.75,5.51-2.27,8.41-1.03,5.83-1.22,11.84-2.15,17.82-.91,6.02-2.37,12.21-4.53,18.31-.55,1.52-1.13,3.06-1.75,4.54-.67,1.53-1.34,3.07-2.01,4.62-1.37,3.08-2.79,6.12-4.41,9.03-3.2,5.78-7.33,11.18-12.87,13.87-.7.32-1.36.68-2.14.89-.74.24-1.48.51-2.33.75-1.66.47-3.33.93-4.99,1.4-3.36.94-6.71,1.87-10.04,2.89-1.67.5-3.33,1.04-4.99,1.62-.83.29-1.67.6-2.53.95l-1.31.58-1.16.6c-1.54.81-3.1,1.55-4.6,2.42-1.48.93-2.99,1.77-4.41,2.78-.7.53-1.4,1.05-2.1,1.57l-1.04.78-.97.9c-.64.6-1.28,1.2-1.92,1.8-.59.65-1.15,1.35-1.72,2.02-2.18,2.74-3.89,5.91-4.88,9.02-1.05,3.09-1.74,6.08-2.47,8.83-.38,1.38-.76,2.7-1.17,4-.22.63-.44,1.26-.66,1.89l-.33.93-.23.52c-.48,1.07-.87,2.09-1.32,2.99-.96,1.75-1.64,3.21-2.28,4.1-.54.84-1.04,1.65-1.5,2.43-.48.8-.99,1.61-1.41,2.35-.87,1.51-1.61,2.93-2.29,4.34-1.39,2.8-2.42,5.59-4.07,8.78,2.99-2.07,5.22-4.22,7.38-6.52,1.08-1.17,2.12-2.41,3.19-3.77.54-.7,1.06-1.37,1.62-2.16.57-.81,1.15-1.67,1.75-2.59.7-.96,1.49-2.59,2.56-4.55.5-1,.95-2.14,1.48-3.34l.25-.58.37-1.03c.24-.69.49-1.39.73-2.09.45-1.4.87-2.84,1.26-4.27.77-2.89,1.44-5.74,2.36-8.45.87-2.74,2.22-5.15,3.99-7.4.47-.54.9-1.11,1.39-1.65l1.62-1.51.81-.76.92-.68,1.84-1.38c1.26-.89,2.67-1.67,4.01-2.52,1.38-.8,2.87-1.5,4.32-2.27l1.09-.56,1.02-.45c.72-.29,1.47-.57,2.25-.84,1.55-.54,3.15-1.06,4.78-1.55,3.24-.99,6.56-1.92,9.9-2.85,1.69-.47,3.38-.95,5.07-1.42.83-.24,1.74-.55,2.65-.86.91-.26,1.8-.72,2.69-1.13,3.53-1.73,6.55-4.27,9.02-7.08,2.49-2.82,4.48-5.92,6.23-9.05,1.74-3.14,3.23-6.33,4.63-9.48.69-1.58,1.37-3.14,2.05-4.71.68-1.63,1.29-3.23,1.87-4.85,2.29-6.47,3.82-13,4.78-19.33.97-6.37,1.17-12.39,2.12-17.69.48-2.66,1.09-5.13,1.99-7.41.44-1.15.99-2.24,1.46-3.34.49-1.09,1.13-2.08,1.67-3.09,2.37-3.97,5.07-7.37,7.5-10.37,2.51-3.02,4.68-5.63,6.46-7.78,1.78-2.2,3.17-3.94,4.05-5.2.9-1.24,1.37-1.9,1.37-1.9,0,0,.13-.16.34-.49.22-.34.54-.84.95-1.49.86-1.28,2.02-3.27,3.32-5.95.55-1.39,1.34-2.85,1.79-4.64.25-.88.57-1.78.79-2.75.17-.98.35-2,.53-3.05l.13-.8.04-.83c.02-.56.04-1.12.07-1.69.02-.57.04-1.15.06-1.74,0-.55-.07-1.2-.11-1.81Z" style="fill:#fff; stroke-width:0px;"/><path d="M193.5,255.8c-5.92,8.28-14,17.19-24.65,26.8h0s0,0,0,0h0c-.07.07-.15.14-.22.21-.52.49-1.05.95-1.58,1.4-.24.21-.49.41-.73.62-.05.04-.1.08-.14.12-.31.26-.62.51-.94.76-.07.05-.13.1-.2.16l-.97.77c-1.35,1.02-4.81,3.57-5.67,7.04-.04.17-.08.35-.11.52-.06.34-.09.69-.09,1.04,0,2.24,1.19,4.78,4.58,7.49,2.57,2.26,4.97,4.46,7.21,6.78,1.39,1.46,2.74,2.96,4,4.58.76.97,1.49,1.99,2.18,3.07.91,1.44,1.78,2.99,2.32,4.79.2.66.35,1.37.39,2.09,0,0,0,0,0,0,.01.24.01.48,0,.72.04.47-.16.96-.26,1.4-.12.4-.37.76-.56,1.1-.02.04-.05.08-.07.12h0s0,0,0,0c14.82-11.25-22.29-35.44,5.32-43.76,23.89-7.2,21.06-18.36,10.19-27.84Z" style="fill:#80d8c9; stroke-width:0px;"/><path d="M155.65,231.96l.34.27c.64.52,1.28,1.05,1.92,1.58,1.17.97,2.33,1.94,3.48,2.95.65.58,1.3,1.16,1.95,1.75,1.1,1.01,2.2,2.03,3.27,3.1,1.63,1.62,3.22,3.33,4.74,5.16.06.07.12.14.18.21,1.56,1.93,3.04,4.02,4.32,6.37,1.09,2.02,2.02,4.3,2.52,6.81.08.4.15.81.2,1.22,0,0,0,0,0,0,.05.33.08.65.11.98.01.12.02.24.03.37.01.2.02.39.03.59,0,.16.01.33.01.49,0,.04,0,.08,0,.12,0,1.34-.15,2.68-.42,3.97h0c1.61-5.57,3.12-12.26,4.34-19.67-1.12-.65-2.26-1.28-3.41-1.89-15.2-8.01-23.59-14.36-23.6-14.37Z" style="fill:#0397ce; stroke-width:0px;"/><path d="M138.6,154.36c3.24,12.01,4.93,26.94,3.86,45.99h0c0,.07,0,.13,0,.2.12,2.34.15,4.6.22,6.74.13,4.47.51,8.43,1.8,11.83.48,1.27,1.08,2.48,1.81,3.64,1.2,1.93,2.73,3.7,4.6,5.33l1.14.96c.26.22.51.44.79.67.13.11.27.22.43.34l.53.42,1.88,1.49s8.4,6.36,23.6,14.37c1.15.6,2.29,1.24,3.41,1.89,3.28-19.89,4.45-45-.31-67.95-12.78-9.98-28.83-18.32-43.76-25.9Z" style="fill:#43bac2; stroke-width:0px;"/><path d="M141.68,192.85s0,0,0,0c.43,2.54.65,5.05.77,7.48,0,0,0,0,0,0h0c1.07-19.05-.62-33.97-3.86-45.99-25.59-12.99-47.87-23.74-44.75-36.71-8.65,1.06-19.18,3.39-29.42,6.36-.06.01-.12.03-.18.04h0c.68-.17,1.39-.32,2.16-.44.1-.01.19-.03.29-.04.12-.02.23-.03.35-.04.14-.02.29-.03.44-.05.11,0,.22-.02.33-.03.18-.01.36-.02.54-.03.1,0,.19,0,.29-.01.29,0,.58,0,.88,0,.62-.01,1.41.14,2.11.24.39.1.78.2,1.16.32.39.12.77.26,1.14.45,1.49.65,2.9,1.79,3.79,2.86.93,1.07,1.59,2.13,2.09,3.04.26.47.5.92.71,1.34.22.43.42.84.61,1.24.19.39.37.78.56,1.15.5,1.01.99,1.95,1.51,2.84.44.76.9,1.48,1.4,2.17.43.6.89,1.17,1.4,1.73,1.97,2.23,4.52,4.12,7.54,5.71,1.72.83,3.46,1.67,5.22,2.52.93.45,1.87.9,2.82,1.35.93.49,1.87.98,2.81,1.47,1.89.98,3.79,1.98,5.67,3.12.95.55,1.89,1.1,2.85,1.66.94.6,1.88,1.21,2.82,1.82,1.89,1.21,3.76,2.51,5.6,3.92,1.84,1.4,3.66,2.91,5.43,4.52.88.8,1.76,1.64,2.61,2.51.38.39.76.79,1.14,1.2.11.12.22.24.33.36.28.31.55.62.83.93.11.12.21.25.32.37.73.86,1.43,1.74,2.1,2.66.1.13.19.27.29.4.25.35.49.7.73,1.05.09.14.19.28.28.42.32.48.63.97.93,1.47,2.67,4.41,4.48,9.52,5.34,14.59Z" style="fill:#0397ce; stroke-width:0px;"/><path d="M93.85,117.65c1.04-4.31,4.88-8.86,12.33-13.81-7.21-8.27-11.02-15.86-5.41-28.74-66.83-3.59-83.69,49.28-59.95,54.57.71.12,1.46.24,2.15.29.42.05.73.05,1.08.06.41-.02.82,0,1.25-.05,1.21-.08,2.54-.29,3.97-.64.23-.06.47-.12.71-.18.38-.1.77-.21,1.17-.33,2.18-.66,4.57-1.6,7.25-2.7.69-.28,1.4-.57,2.11-.86.19-.08.39-.16.6-.24.21-.08.42-.15.64-.23.44-.15.91-.29,1.37-.44,0,0,0,0,0,0,.42-.12.85-.23,1.29-.34,0,0,0,0,0,0,10.24-2.98,20.77-5.3,29.42-6.36Z" style="fill:#1f62aa; stroke-width:0px;"/><polygon points="45 38.45 45 38.45 45 38.45 45 38.45 45 38.45" style="fill:#3a2e86; stroke-width:0px;"/><path d="M40.55,129.62c.09.01.18.03.26.04-23.73-5.29-6.87-58.16,59.95-54.57.37-.85.77-1.71,1.22-2.61,11.28-22.32,42.52-35.32,48.39-37.6-.18.07-.37.14-.55.21-.4.15-.78.3-1.2.45-.54.22-1.12.46-1.73.71-.24.1-.49.2-.74.3-.14.06-.28.11-.42.16-.24.09-.48.18-.72.27l-.24.09-.41.14-.27.09c-.19.06-.39.13-.58.2-.29.1-.59.2-.89.29,0,0,0,0,0,0-1,.31-2.03.59-3.11.83-1.73.38-3.59.66-5.61.69-.09,0-.18,0-.27,0-.42,0-.84,0-1.27-.03-.98-.05-2.01-.19-3.07-.43,0,0,0,0,0,0-.94-.22-1.89-.52-2.82-.93-.06-.03-.12-.05-.17-.08-.46-.21-.92-.45-1.37-.71-.06-.03-.11-.07-.17-.1-.22-.14-.45-.28-.67-.43-2.64-1.77-4.5-4.35-5.63-6.78-2.24-4.93-2.64-9.54-3.16-13.77-.12-1.01-.24-2.02-.36-3.04l-.09-.62-.08.05h-.02s-.27.19-.27.19l-.02.02-.11.07-.15.09-.09.05-.47.26-1.22.69s0,0,0,0c-.57.3-1.15.59-1.74.86,0,0,0,0,0,0,0,0,0,0,0,0-.39.18-.78.35-1.18.52-.1.04-.2.09-.31.13-.4.16-.8.32-1.21.47h-.01c-.41.15-.82.29-1.23.43-.1.03-.21.07-.31.1-.42.13-.83.26-1.25.38-.23.07-.47.13-.7.19-.08.02-.16.04-.25.07-.47.12-.94.22-1.4.32-.49.1-.97.2-1.46.28,0,0,0,0,0,0-.64.11-1.28.2-1.91.28h0c-.64.08-1.27.14-1.9.19-.93.08-1.85.12-2.75.15-.33,0-.66.02-.99.02h-2.72s.02.07.02.07l.31.87c.1.33.21.5.3.97,0,0,0,0,0,0,.08.33.15.66.22,1,0,.05.02.1.03.15.06.32.1.64.14.96,0,.06.01.13.02.19.03.32.06.64.07.97,0,.05,0,.1,0,.16.01.34.02.67,0,1.01,0,0,0,.01,0,.02,0,.34-.03.67-.06,1.01,0,.05,0,.1-.01.15-.03.32-.07.64-.12.96,0,.06-.02.12-.03.18-.05.32-.11.63-.18.95-.01.05-.02.1-.03.15-.17.74-.38,1.47-.64,2.17,0,0,0,0,0,0-.29.78-.63,1.54-1.02,2.27-.78,1.45-1.75,2.79-2.86,3.97-.56.59-1.15,1.14-1.78,1.64-2.5,2.04-5.48,3.41-8.54,4.04-.47.1-.94.18-1.41.24-2.35.33-4.71.24-6.86-.12-.25-.04-.5-.08-.74-.13,0,0,0,0,0,0-.46-.09-.91-.19-1.36-.3-.11-.03-.22-.05-.33-.08-.88-.22-1.73-.46-2.56-.72-.1-.03-.2-.06-.3-.1-2.25-.72-4.3-1.54-6.21-2.29-.51-.2-1.01-.39-1.5-.58,0,0-.02,0-.03-.01-.5-.19-.99-.36-1.47-.53,0,0,0,0,0,0,0,0,0,0,0,0-.48-.16-.94-.32-1.4-.45-.21-.06-.41-.12-.61-.18-.06-.02-.12-.03-.17-.05-.15-.04-.29-.08-.44-.11-.06-.01-.11-.03-.17-.04-.38-.09-.75-.16-1.09-.22-.05,0-.1-.01-.15-.02-.13-.02-.25-.03-.37-.05-.05,0-.1-.01-.14-.01-.16-.01-.31-.02-.46-.03-.73,0-1.27.06-1.75.22-.38.13-.73.32-1.11.61-.22.15-.43.36-.66.58l-.34.36c-.06.05-.11.14-.17.21-.03.04-.09.11-.11.14l-.02.06-.11.26c-.17.33-.3.72-.42,1.11-.5,1.55-.84,3.33-.99,5.27-.33,3.87-.18,8.14-.21,12.57,0,.02,0,.04,0,.06-.06,3.6-.18,7.43-1.05,11.31,0,0,0,0,0,.01-.06.28-.13.56-.2.84-.03.12-.07.25-.1.37-.04.17-.09.33-.13.5-.08.29-.17.59-.26.89l-.53,1.77-.77,1.77c-.27.58-.51,1.17-.81,1.74l-1.04,1.68c-.34.56-.72,1.1-1.12,1.61s-.83,1.01-1.27,1.49c-.89.95-1.84,1.82-2.8,2.61-3.96,3.01-7.81,4.56-10.77,6.19-1.23.65-2.31,1.31-3.28,2-.69.49-1.32,1-1.9,1.53-.61.55-1.17,1.13-1.69,1.75-.39.54-.79,1.07-1.19,1.58-.33.59-.66,1.17-.99,1.75-.36.54-.58,1.22-.87,1.82-.31.61-.48,1.22-.68,1.83-.4,1.21-.64,2.37-.76,3.47-.06.55-.08,1.09-.07,1.61,0,.52.05,1.04.11,1.54.07.5.16.99.29,1.46.25.95.6,1.85,1.05,2.71.22.43.47.84.74,1.25,0,0,0,0,0,0,.24.36.5.71.77,1.06.08.1.16.21.24.31.2.25.4.49.61.73.08.1.17.19.25.29.29.31.58.62.87.91,0,0,0,0,.01.01.3.3.61.58.92.86.09.08.19.17.28.25.23.2.46.4.7.59.09.08.19.15.28.23.31.25.63.49.94.72,0,0,0,0,0,0,.71.52,1.42.99,2.1,1.41,0,0,0,0,.01,0,.29.18.58.36.87.53.1.06.19.11.29.17.19.11.38.22.56.32,1.15.65,2.22,1.19,3.16,1.64.69.33,1.34.62,1.89.86.82.36,1.45.61,1.89.77.43.17.65.25.65.25,0,0,.07.03.2.08.01,0,.03,0,.04.01.07.02.15.06.25.09.04.01.07.03.11.04.05.02.1.04.15.06.05.02.1.04.16.06.06.02.12.04.18.06.08.03.16.06.25.09.05.02.09.03.13.05.32.11.7.24,1.13.38,0,0,.02,0,.03,0,.18.06.37.12.57.18.07.02.13.04.2.06.16.05.33.1.5.15.07.02.14.04.21.06.48.15,1.01.3,1.57.45.08.02.16.04.24.06.21.06.44.11.66.17.09.02.18.04.27.07.3.07.61.15.93.22,0,0,.01,0,.02,0,.72.16,1.48.32,2.29.47Z" style="fill:#3a2e86; stroke-width:0px;"/><path d="M190.89,13.3c-.11.42-.21.85-.32,1.27-.6,1.6-1.12,3.23-1.86,4.77-.78,1.59-1.73,3.15-2.9,4.61-.37.46-.76.91-1.18,1.35-.45.48-.93.95-1.44,1.39-.1.09-.2.17-.3.25-.29.25-.59.49-.9.72-.6.42-1.22.81-1.87,1.16-.43.23-.87.45-1.32.66-.45.2-.9.39-1.36.57-.46.18-.93.34-1.4.48-.47.15-.94.28-1.42.41-.71.18-1.43.34-2.14.47-.27.05-.54.09-.82.14-.2.03-.4.06-.6.09-1.38.2-2.74.34-4.1.45-.51.04-1.02.08-1.52.12-.47.04-.93.07-1.4.11-1.4.11-2.79.22-4.21.38-.78.06-1.67.18-2.67.36-.67.12-1.38.27-2.14.45-.76.18-1.56.39-2.39.63-.42.12-.85.25-1.29.39-.25.1-.53.2-.79.3-.06.02-.11.04-.17.06-5.88,2.28-37.11,15.28-48.39,37.6-.45.9-.85,1.76-1.22,2.61.25,0,.49,0,.74.01,49.53,1.58,90.32-25.78,90.32-65.66-.31,1.31-.62,2.58-.95,3.85Z" style="fill:#1f62aa; stroke-width:0px;"/><path d="M191.84,9.45c-4.51,5.61-9.14,9.58-13.71,11.18-2.34.71-4.74.9-7.89.91-3.13.02-6.97-.17-11.55.29-2.46.19-6.3.83-10.85,2.3-1.12.42-2.29.86-3.51,1.32-1.07.43-2.01.83-3.07,1.22l-.2.07-.53.18c-.38.12-.76.27-1.14.37-.76.24-1.51.43-2.26.6-1.48.33-2.92.48-4.13.42-1.22-.07-2.09-.36-2.73-.8-.65-.44-1.28-1.16-1.86-2.38-1.17-2.45-1.73-6.19-2.17-10.29-.13-1.08-.26-2.17-.39-3.26l-.14-.98c-.09-.5-.14-.95-.26-1.49-.2-1.04-.45-2.08-.81-3.03-.69-1.93-1.77-3.51-3.26-4.6-1.52-1.13-3.48-1.61-5.31-1.45-3.72.18-8,3.96-8.8,4.09-1.61.85-3.29,1.52-5.06,2.02-1.77.5-3.62.8-5.57.96-.97.08-1.97.12-3.01.14-1.33,0-2.67,0-4.01.01-2.26.01-4.54.2-6.26,1.06-.88.39-1.62.96-2.3,1.65-.66.7-1.23,1.57-1.53,2.47-.67,1.77-.67,3.78-.06,5.94.09.53.32,1.07.5,1.6l.54,1.49.28.74c.07.22.24.57.22.66.57,2.2-.34,4.93-2.54,6.69-1.08.87-2.39,1.49-3.82,1.79-1.45.3-2.95.3-4.71-.04-3.55-.65-7.53-2.52-12.23-4.18-2.39-.8-5.01-1.63-8.26-1.74-1.61-.05-3.37.12-5.09.63-1.72.5-3.38,1.36-4.72,2.4-.69.51-1.3,1.07-1.87,1.64l-.81.87c-.28.32-.42.52-.77.96-.34.46-.75.88-.92,1.4l-.54,1.21c-.32.67-.55,1.34-.75,2.01-.87,2.68-1.29,5.29-1.49,7.73-.4,4.9-.2,9.33-.25,13.44-.05,4.09-.26,7.84-1.27,10.92-.95,3.19-2.39,5.43-4.63,7.22-2.31,1.8-5.61,3.25-9.19,5.15-3.58,1.87-7.35,4.57-10.1,7.92-.64.86-1.28,1.71-1.91,2.56-.51.9-1.02,1.78-1.53,2.66-.54.88-.86,1.78-1.27,2.67-.41.87-.72,1.81-1.02,2.73-1.21,3.69-1.67,7.71-1.13,11.5.51,3.79,1.98,7.18,3.75,9.87,1.77,2.71,3.8,4.8,5.74,6.51,1.95,1.73,3.85,3.05,5.59,4.15,3.49,2.18,6.35,3.47,8.3,4.32.98.42,1.73.72,2.24.91.51.2.77.3.77.3,0,0,1.04.41,3.05,1.07,2.02.65,4.95,1.56,8.98,2.3,1.02.18,2.09.35,3.34.46.59.07,1.33.09,2.04.11.66-.02,1.34,0,2.01-.07,2.72-.18,5.52-.76,8.29-1.59,2.76-.84,5.51-1.93,8.22-3.04.66-.27,1.32-.54,1.99-.81.62-.27,1.14-.41,1.68-.58,1.12-.33,2.3-.53,2.86-.5.19-.02.19.04.3.02,0,.04.02,0,0,.02.01.01-.05-.08.13.13.35.35,1.06,1.65,1.79,3.18,1.47,3.11,3.52,7.08,6.53,10.39,2.97,3.36,6.7,6.07,10.65,8.14,1.82.88,3.67,1.78,5.54,2.68.88.42,1.77.85,2.67,1.28.87.46,1.75.92,2.63,1.38,1.77.92,3.54,1.85,5.26,2.89.87.51,1.74,1.01,2.62,1.52.84.55,1.69,1.09,2.54,1.64,3.42,2.19,6.65,4.65,9.62,7.34,2.97,2.69,5.6,5.67,7.57,8.96,1.97,3.29,3.24,6.86,3.92,10.77.68,3.94.71,8.2.85,12.96.15,4.69.52,10.06,2.49,15.31.96,2.62,2.35,5.09,3.94,7.35.82,1.1,1.69,2.15,2.58,3.17.94.93,1.85,1.94,2.84,2.79l1.49,1.26c.49.42,1.01.86,1.43,1.18l2.62,2.08c1.73,1.4,3.42,2.81,5.06,4.24,3.26,2.87,6.34,5.83,8.86,8.89,2.46,3.04,4.36,6.26,4.66,8.91.18,1.33.04,2.54-.4,3.84-.43,1.29-1.24,2.65-2.27,3.98-1.03,1.33-2.24,2.65-3.61,3.88-.65.63-1.39,1.23-2.09,1.84-.34.31-.73.59-1.1.89l-.84.66c-2.07,1.57-4.12,3.03-6.12,4.34-1.09.71-2.14,1.39-3.15,2.04-.27.17-.53.34-.79.51-.15.11-.21.11-.44.31l-.63.53c-.42.35-.84.7-1.25,1.04-.38.37-.65.82-.97,1.21-.69.77-1.04,1.72-1.43,2.6-.22.94-.47,1.86-.4,2.78-.06,1.84.58,3.53,1.3,5,.16.4.34.71.52.99.19.29.37.57.55.84.17.25.38.58.53.75.15.18.3.36.44.54.58.73,1.11,1.29,1.57,1.77,3.47,3.5,6.63,5.64,9.59,7.63,2.96,1.94,5.72,3.53,8.4,5.04,2.68,1.51,5.27,2.91,7.77,4.53,1.24.82,2.48,1.69,3.5,2.77,1,1.07,1.93,2.42,1.67,4.27.2-.38.5-.78.64-1.22.1-.44.29-.94.26-1.4.06-.97-.13-1.93-.39-2.81-.53-1.8-1.41-3.35-2.32-4.79-1.85-2.88-3.96-5.33-6.19-7.66-2.24-2.33-4.63-4.53-7.21-6.78-9.88-7.9-1.07-14.32,1.28-16.1l.97-.77c.43-.34.86-.66,1.28-1.03.85-.73,1.7-1.42,2.54-2.23,1.69-1.53,3.33-3.27,4.87-5.27,1.53-1.99,2.98-4.3,3.93-7.07.97-2.74,1.34-5.93.91-8.91-.4-2.99-1.46-5.69-2.72-8.03-1.28-2.35-2.76-4.43-4.32-6.37-3.15-3.82-6.6-7.1-10.14-10.21-1.77-1.55-3.58-3.05-5.4-4.52l-2.75-2.18c-.49-.38-.84-.69-1.22-1.01l-1.14-.96c-2.98-2.6-5.11-5.59-6.4-8.97-1.29-3.4-1.67-7.36-1.8-11.83-.15-4.42-.14-9.37-1.01-14.43-.86-5.07-2.67-10.18-5.34-14.59-2.66-4.43-6.02-8.18-9.56-11.38-3.54-3.22-7.25-6.01-11.03-8.43-.94-.61-1.88-1.21-2.82-1.82-.95-.56-1.9-1.11-2.85-1.66-1.88-1.13-3.78-2.14-5.67-3.12-.94-.49-1.88-.98-2.81-1.47-.94-.45-1.88-.9-2.82-1.35-1.76-.85-3.5-1.69-5.22-2.52-3.01-1.59-5.57-3.48-7.54-5.71-2.01-2.23-3.36-4.74-4.87-7.9-.39-.8-.8-1.64-1.32-2.58-.5-.91-1.16-1.97-2.09-3.04-.9-1.07-2.31-2.21-3.79-2.86-.74-.37-1.53-.57-2.3-.77-.7-.11-1.49-.26-2.11-.24-2.66-.06-4.58.44-6.4.94-.93.28-1.86.58-2.61.91-.71.29-1.41.58-2.11.86-2.68,1.1-5.06,2.03-7.25,2.7-2.18.66-4.13,1.04-5.86,1.15-.44.05-.84.03-1.25.05-.35-.02-.66-.02-1.08-.06-.78-.07-1.63-.2-2.41-.34-3.21-.59-5.79-1.36-7.49-1.92-1.71-.57-2.6-.91-2.6-.91,0,0-.22-.09-.65-.25-.43-.16-1.07-.42-1.89-.77-1.63-.71-4.03-1.8-6.78-3.53-2.73-1.7-5.84-4.14-8-7.38-2.14-3.25-2.95-7.19-1.36-12.04.2-.6.38-1.21.68-1.83.29-.6.5-1.28.87-1.82.33-.58.66-1.16.99-1.75.4-.52.8-1.04,1.19-1.58,1.7-2.03,3.86-3.68,6.87-5.27,2.96-1.63,6.81-3.17,10.77-6.19,1.92-1.59,3.82-3.47,5.2-5.71l1.04-1.68c.3-.57.54-1.16.81-1.74l.77-1.77.53-1.77c1.51-4.8,1.67-9.56,1.74-13.99.04-4.43-.12-8.7.21-12.57.15-1.94.49-3.72.99-5.27.12-.4.25-.78.42-1.11l.11-.26.02-.06s0,0,0,0c-.03.04.07-.09.11-.14.06-.07.11-.16.17-.21l.34-.36c.23-.22.44-.43.66-.58.86-.64,1.54-.83,2.86-.83,1.3.02,3.1.49,5.01,1.15,3.9,1.32,8.26,3.5,13.77,4.59,2.75.55,5.94.66,9,0,3.07-.63,6.05-2,8.54-4.04,2.5-2.02,4.5-4.74,5.66-7.88,1.17-3.12,1.42-6.7.58-10.02-.09-.48-.2-.65-.3-.97l-.31-.87-.04-.11s0,0,0,0h0s0,0,0,0h0s0,.02,0,.03c0,.02-.03.02-.04.02h2.78c1.22-.02,2.47-.07,3.74-.17,2.53-.21,5.12-.61,7.64-1.33,2.52-.7,4.97-1.69,7.25-2.89l1.68-.95.24-.15.14-.09.27-.18.14-.09s0,0,0,0h0s-.01,0-.01,0c-.02,0-.03-.01-.03-.03h0s.1.67.1.67c.12,1.02.24,2.03.36,3.04.52,4.22.92,8.84,3.16,13.77,1.13,2.43,2.99,5.01,5.63,6.78,2.62,1.8,5.66,2.54,8.27,2.67,2.63.13,4.99-.19,7.15-.67,1.07-.25,2.11-.52,3.11-.83.51-.14.98-.32,1.47-.48l.68-.23.24-.09c1.28-.46,2.54-1.01,3.62-1.44.94-.36,1.84-.7,2.71-1.03,3.5-1.12,6.42-1.66,8.49-1.83,3.76-.43,7.43-.51,11.22-1.06,3.76-.52,7.74-1.71,10.92-3.97,3.13-2.33,5.21-5.27,6.72-8.32.75-1.53,1.26-3.17,1.86-4.77.44-1.67.86-3.38,1.27-5.12Z" style="fill:#fff; stroke-width:0px;"/></svg>