<?xml version="1.0" encoding="UTF-8"?>
<svg id="Camada_1" xmlns="http://www.w3.org/2000/svg" version="1.1" viewBox="0 0 256 256">
  <!-- Generator: Adobe Illustrator 29.1.0, SVG Export Plug-In . SVG Version: 2.1.0 Build 142)  -->
  <defs>
    <style>
      .st0 {
        fill: #80d8c9;
      }
      .st1 {
        fill: #1f62aa;
      }
      .st2 {
        fill: #26225b;
      }
      .st3 {
        fill: #43bac2;
      }
      .st4 {
        fill: #3a2e86;
      }
      .st5 {
        fill: #0397ce;
      }
      @media (prefers-color-scheme: dark) {
        .st0 {
          fill: #3a2e86;
        }
        .st1 {
          fill: #43bac2;
        }
        .st2 {
          fill: #fff;
        }
        .st3 {
          fill: #1f62aa;
        }
        .st4 {
          fill: #80d8c9;
        }
        .st5 {
          fill: #0397ce;
        }
      }
    </style>
  </defs>
  <path class="st4" d="M140.317,140.648c-5.027-24.274-18.736-45.348-48.842-48.236,5.805,6.64,11.842,15.228,15.41,28.446,11.408,5.79,23.67,12.162,33.432,19.789Z"/>
  <path class="st5" d="M78.555,60.314c-.191-.006-.378-.005-.568-.009-4.285,9.843-1.376,15.636,4.132,21.957,4.766-3.168,11.459-6.554,20.455-10.23,18.839-7.699,46.914-28.375,44.987-61.881,0,30.469-31.167,51.373-69.006,50.163Z"/>
  <path class="st4" d="M140.551,192.562c3.042,1.763,5.909,3.73,8.28,5.801,18.599-26.009,9.143-43.918-8.514-57.715,3.631,17.531,2.741,36.716.234,51.914Z"/>
  <path class="st1" d="M109.837,155.992h0c.095,1.84.122,3.621.179,5.302.098,3.411.391,6.44,1.373,9.036.984,2.582,2.614,4.862,4.891,6.851l.868.732c.291.246.554.48.931.77l1.84,1.461c.007.005,6.414,4.856,18.027,10.976.877.462,1.748.944,2.606,1.441,2.508-15.198,3.397-34.383-.234-51.914-9.762-7.628-22.024-13.999-33.432-19.789,2.478,9.179,3.768,20.582,2.952,35.134Z"/>
  <path class="st4" d="M148.831,198.363c-4.525,6.328-10.698,13.131-18.831,20.476h0s0,0,0,0c-.637.612-1.292,1.147-1.938,1.701-.322.282-.652.528-.978.79l-.742.586c-1.795,1.365-8.527,6.267-.98,12.304,1.966,1.725,3.798,3.406,5.507,5.183,1.704,1.779,3.314,3.652,4.727,5.849.694,1.101,1.362,2.283,1.771,3.661.203.676.345,1.409.299,2.15.027.357-.122.734-.197,1.073-.101.341-.332.644-.485.934,11.321-8.592-17.028-27.074,4.062-33.434,18.252-5.503,16.087-14.024,7.787-21.272Z"/>
  <path class="st1" d="M137.232,207.589l-.005-.006c-.132.629-.293,1.244-.5,1.83-.728,2.115-1.835,3.88-3.004,5.401-1.178,1.522-2.436,2.854-3.724,4.024h0c8.134-7.344,14.307-14.148,18.831-20.475-2.372-2.071-5.238-4.038-8.28-5.801-.933,5.658-2.088,10.768-3.319,15.027Z"/>
  <path class="st5" d="M124.298,183.805c2.704,2.38,5.339,4.888,7.746,7.803,1.192,1.476,2.324,3.068,3.298,4.864.968,1.789,1.773,3.849,2.081,6.135.236,1.639.145,3.359-.195,4.976l.005.006c1.23-4.259,2.385-9.369,3.319-15.027-.858-.497-1.728-.979-2.606-1.441-11.613-6.12-18.021-10.971-18.027-10.976l.258.205c1.39,1.125,2.767,2.272,4.122,3.456Z"/>
  <path class="st3" d="M145.168,17.701c-1.151,2.334-2.743,4.578-5.134,6.36-2.429,1.725-5.467,2.64-8.34,3.035-2.9.417-5.699.479-8.575.809-1.583.132-3.814.545-6.489,1.4-.234.089-.494.187-.736.279-4.487,1.744-28.354,11.676-36.973,28.724-.347.686-.65,1.347-.932,1.996.19.005.377.003.568.009,37.839,1.211,69.006-19.693,69.006-50.163-.316,1.33-.632,2.633-.97,3.909-.46,1.222-.852,2.47-1.423,3.641Z"/>
  <path class="st5" d="M72.696,92.814c6.875-.845,13.116-.945,18.779-.402-3.377-3.862-6.673-7.072-9.356-10.151-5.697,3.787-8.63,7.263-9.423,10.553Z"/>
  <path class="st1" d="M72.696,92.814c-2.387,9.905,14.64,18.122,34.189,28.044-3.568-13.218-9.604-21.806-15.41-28.446-5.663-.543-11.904-.442-18.779.402Z"/>
  <path class="st5" d="M109.837,155.992c.816-14.552-.474-25.955-2.952-35.134-19.549-9.922-36.575-18.139-34.189-28.044-6.607.812-14.654,2.587-22.474,4.861-.047.011-.091.02-.138.031l.004.005c1.153-.29,2.411-.529,4.032-.49.473-.009,1.076.104,1.611.187.296.077.595.154.89.246.295.092.588.201.87.342,1.136.495,2.212,1.365,2.899,2.181.714.819,1.216,1.624,1.599,2.321.202.359.379.7.544,1.026.165.327.317.64.467.946.287.603.567,1.176.85,1.721.565,1.091,1.139,2.075,1.801,2.989.331.457.684.897,1.068,1.323,1.503,1.702,3.457,3.146,5.759,4.36,1.314.634,2.644,1.276,3.989,1.925.713.342,1.431.686,2.152,1.032.713.373,1.43.747,2.15,1.123,1.442.75,2.896,1.516,4.332,2.381.722.421,1.447.843,2.176,1.267.715.461,1.433.924,2.153,1.389,1.443.924,2.874,1.921,4.282,2.993,1.408,1.073,2.794,2.221,4.146,3.451.675.612,1.342,1.25,1.994,1.916,1.956,1.996,3.781,4.24,5.307,6.78,2.042,3.373,3.424,7.276,4.083,11.147.021.123.029.244.049.367.136.845.253,1.689.336,2.521.024.244.033.481.053.724.06.706.119,1.413.154,2.104,0,.002,0,.004,0,.007h0Z"/>
  <g>
    <path class="st0" d="M115.476,29.741c-.306.116-.596.226-.914.346-.41.167-.858.354-1.324.544s-.953.382-1.441.559l-.184.07-.522.178c-.374.123-.735.259-1.125.369-.558.173-1.151.319-1.742.466-.216.054-.416.12-.636.17-.462.101-.939.19-1.426.269-1.252.202-2.587.314-4.034.241-.497-.026-1.016-.081-1.545-.17-.529-.089-1.068-.213-1.609-.376-.27-.082-.54-.173-.809-.275-.807-.306-1.604-.708-2.355-1.223-.419-.28-.798-.598-1.162-.927-.128-.114-.258-.225-.38-.344h0s-.008.002-.008.002v-.012s-.001,0-.001,0c-.313-.305-.605-.625-.878-.954-.157-.19-.298-.383-.442-.579-.169-.227-.33-.455-.481-.687-.103-.16-.207-.317-.302-.478-.238-.401-.459-.802-.644-1.201-1.712-3.764-2.018-7.292-2.415-10.517-.091-.77-.183-1.543-.275-2.32l-.067-.475-.078.05-.208.134-.104.067-.186.111-1.285.727c-.437.231-.881.451-1.333.659-1.353.626-2.766,1.148-4.21,1.552-.962.272-1.938.487-2.915.652-.977.166-1.955.283-2.923.361-.97.083-1.924.114-2.855.13l-2.081.003.018.05.234.665c.076.249.161.378.228.744.564,2.219.485,4.593-.14,6.748-.089.308-.19.611-.301.909-.221.598-.483,1.177-.78,1.733-.595,1.112-1.334,2.13-2.186,3.029-.426.449-.88.869-1.358,1.255-1.907,1.556-4.183,2.602-6.528,3.087-1.169.251-2.363.355-3.528.343-.582-.006-1.157-.041-1.717-.1-.56-.059-1.106-.143-1.63-.247-1.58-.314-3.035-.745-4.394-1.213-.453-.156-.895-.317-1.328-.478-1.731-.647-3.308-1.315-4.798-1.818-.366-.126-.726-.244-1.076-.348-1.05-.314-2.009-.518-2.753-.531-.506,0-.889.036-1.227.132-.338.097-.632.255-.959.5-.165.115-.331.274-.503.443l-.259.275c-.045.04-.085.106-.128.158-.034.045-.11.142-.086.11.006-.009.01-.022.004-.004l-.015.046-.088.2c-.131.255-.229.547-.318.85-.385,1.187-.638,2.547-.756,4.028-.254,2.957-.135,6.219-.162,9.605-.026,1.656-.072,3.373-.245,5.124-.009.092-.02.185-.03.277-.185,1.738-.5,3.508-1.058,5.285l-.407,1.354-.588,1.35c-.205.446-.387.895-.617,1.331l-.794,1.281c-.263.428-.552.839-.859,1.234s-.634.773-.974,1.136c-.679.726-1.409,1.389-2.142,1.995-3.024,2.301-5.968,3.483-8.229,4.726-2.297,1.211-3.947,2.471-5.246,4.025-.299.412-.601.814-.909,1.208-.255.449-.507.893-.756,1.334-.278.416-.443.932-.664,1.391-.234.469-.37.936-.523,1.394-.303.926-.492,1.809-.579,2.651-.044.421-.062.832-.056,1.233.006.401.035.792.087,1.174.052.382.126.754.221,1.117.189.726.461,1.415.803,2.069.171.327.359.646.563.956,1.239,1.859,2.885,3.37,4.51,4.558.542.396,1.081.756,1.602,1.081,1.404.88,2.669,1.531,3.739,2.038.53.251,1.027.477,1.44.657.626.272,1.111.468,1.443.59.329.128.498.193.498.193,0,0,.382.147,1.124.404.247.085.534.183.861.291.973.318,2.327.731,3.978,1.107.55.125,1.134.246,1.747.359.065.011.134.021.201.032-18.133-4.04-5.25-44.43,45.804-41.688.283-.649.586-1.31.932-1.996,8.619-17.049,32.486-26.98,36.973-28.724-.137.052-.28.106-.417.158Z"/>
    <path class="st0" d="M50.223,97.675c-.024.013-.046.024-.07.037.248-.06.483-.126.742-.18.022-.022.039-.047.068-.065-.246.07-.493.137-.739.208h0Z"/>
  </g>
  <path class="st3" d="M72.696,92.814c.793-3.29,3.726-6.766,9.423-10.553-5.508-6.321-8.418-12.115-4.132-21.957-51.054-2.742-63.937,37.648-45.804,41.688.545.092,1.114.18,1.644.224.323.037.556.037.827.049.312-.017.624,0,.957-.037,1.316-.084,2.811-.379,4.475-.882,1.669-.508,3.492-1.22,5.538-2.062.53-.216,1.066-.435,1.61-.656.576-.252,1.285-.474,1.995-.691.323-.088.652-.175.989-.258.002,0,.003-.002.005-.002,7.82-2.274,15.867-4.049,22.474-4.861Z"/>
  <g>
    <path class="st2" d="M254.916,83.632c-.178-1.907-.743-3.954-1.734-5.832-1.986-3.811-5.436-6.787-9.189-9.216-.943-.618-1.915-1.2-2.904-1.765-.973-.542-1.96-1.092-2.959-1.649-1.916-1.083-3.858-2.334-5.912-3.604-2.036-1.263-4.269-2.566-6.58-3.636-2.35-1.159-4.929-2.012-7.485-2.651-5.139-1.29-10.39-1.83-15.414-2.874-2.475-.532-5.039-1.164-7.091-2.151-2.277-1.142-4.616-2.472-6.928-3.764l-3.488-1.964-1.771-.981c-.616-.349-1.282-.648-1.927-.945-1.301-.591-2.667-1.11-4.193-1.428-1.497-.329-3.251-.4-4.891.068-1.643.452-2.996,1.298-4.132,2.12-1.144.833-2.159,1.678-3.153,2.488l-1.477,1.186-.732.571c-.022.016-.004.005-.013.009l-.22.095c-.024.011-.017.008-.02.009v.009s0,0,0,0l-.003.014v.003s.002-.017.002-.017c.007-.011-.005-.006.001-.009l.06-.44c.041-.394.07-.799.054-1.229-.022-.85-.206-1.778-.602-2.618-.389-.843-.97-1.563-1.583-2.122-.307-.283-.621-.522-.938-.734-.304-.23-.645-.433-1.011-.613-.703-.385-1.514-.634-2.323-.78-.815-.125-1.638-.13-2.402-.014-.371.053-.787.13-1.085.22-.011.008-.002.003-.002.003.037-.021.019.001,0,.015-.007.004-.03.014-.051,0l-.016-.014.035-.121c.12-.312.237-.617.352-.916.488-1.407.724-2.715.835-3.98.204-2.53-.065-4.905-.702-7.591-.695,10.658-6.382,16.012-7.408,18.567-.456,1.136.483,2.385,1.875,1.582l.22-.148.442-.298c.296-.199.594-.399.894-.601.623-.432,1.163-.756,1.719-1.095.579-.384,1.081-.602,1.603-.851l.376-.18c.287-.13.571-.23.847-.295.266-.083.432-.101.646-.135.406-.064.783-.051,1.149,0,.361.077.72.167,1.073.37.178.084.359.186.537.328.19.124.359.253.5.384.564.535.783.986.817,1.758.009.19-.007.406-.029.631-.021.147-.03.235-.071.459l-.193.926c-.153.624-.248,1.232-.253,1.773.028.519.146.933.341,1.294.175.338.555.758.964.978.387.227.812.327,1.304.354,1.661-.005,3.181-.439,4.461-1.352l.367-.286.783-.61,1.533-1.23c2.005-1.611,3.947-3.343,5.743-3.813,1.749-.51,3.999.113,6.24,1.138.56.259,1.11.5,1.652.808l1.721.953,3.481,1.959c2.345,1.308,4.646,2.623,7.13,3.869.598.3,1.41.667,2.054.863.679.242,1.357.468,2.025.647,1.341.402,2.683.706,4.013.984,5.321,1.095,10.497,1.632,15.25,2.832,2.382.599,4.607,1.335,6.699,2.366,2.184,1.012,4.164,2.169,6.184,3.418,2.005,1.238,3.995,2.522,6.05,3.683.993.553,1.973,1.099,2.94,1.637.939.536,1.847,1.08,2.708,1.644,3.46,2.227,6.296,4.796,7.762,7.642.742,1.418,1.141,2.86,1.28,4.306.019.377.067.71.066,1.108-.016.37-.032.734-.047,1.093-.013.359-.026.713-.039,1.061l-.02.518-.09.507c-.115.671-.226,1.32-.333,1.945-.138.62-.354,1.203-.513,1.771-.28,1.147-.819,2.128-1.175,3.046-.867,1.791-1.655,3.158-2.264,4.058-.291.456-.513.804-.663,1.039-.149.235-.242.349-.242.349,0,0-.34.47-.982,1.358-.622.896-1.646,2.168-2.963,3.801-1.362,1.638-3.022,3.633-4.936,5.934-1.908,2.358-4.089,5.08-6.099,8.444-.465.867-1.007,1.714-1.434,2.653-.413.946-.879,1.89-1.264,2.894-.792,2.018-1.337,4.209-1.733,6.425-.784,4.455-.93,9.045-1.639,13.615-.694,4.599-1.807,9.326-3.46,13.991-.417,1.161-.862,2.335-1.335,3.469-.51,1.17-1.023,2.347-1.539,3.529-1.044,2.353-2.133,4.679-3.368,6.901-2.442,4.419-5.598,8.54-9.835,10.596-.533.241-1.04.52-1.632.682-.569.187-1.131.387-1.778.574-1.272.357-2.542.714-3.809,1.07-2.563.715-5.123,1.431-7.667,2.209-1.272.385-2.541.794-3.814,1.235-.635.22-1.279.462-1.929.724l-.999.442-.888.456c-1.178.622-2.367,1.182-3.515,1.847-1.131.714-2.284,1.354-3.373,2.121-.536.402-1.071.802-1.604,1.2l-.796.599-.742.687c-.491.461-.979.919-1.466,1.376-.454.497-.877,1.029-1.311,1.542-1.667,2.097-2.975,4.517-3.728,6.894-.803,2.362-1.329,4.647-1.89,6.742-.287,1.055-.58,2.064-.895,3.054-.171.485-.34.966-.508,1.444l-.253.712-.172.396c-.365.818-.667,1.6-1.007,2.282-.731,1.34-1.251,2.453-1.741,3.131-.413.644-.793,1.259-1.146,1.854-.367.608-.759,1.232-1.079,1.799-.665,1.156-1.23,2.241-1.752,3.316-1.065,2.142-1.851,4.271-3.111,6.711,2.284-1.583,3.986-3.222,5.639-4.983.822-.891,1.619-1.838,2.434-2.884.413-.538.812-1.043,1.237-1.647.432-.62.876-1.278,1.334-1.98.534-.732,1.141-1.977,1.953-3.475.382-.762.727-1.634,1.133-2.55l.191-.443.282-.787c.185-.527.372-1.059.561-1.595.342-1.07.662-2.172.959-3.265.587-2.206,1.098-4.386,1.804-6.456.663-2.09,1.697-3.937,3.045-5.651.356-.415.691-.847,1.063-1.258l1.238-1.154.622-.583.701-.522,1.407-1.055c.966-.683,2.038-1.273,3.061-1.923,1.057-.613,2.195-1.147,3.298-1.731l.835-.43.777-.343c.553-.222,1.125-.438,1.721-.644,1.188-.411,2.409-.806,3.651-1.182,2.478-.758,5.013-1.468,7.565-2.18,1.288-.362,2.579-.725,3.872-1.088.633-.182,1.329-.422,2.025-.655.697-.199,1.373-.547,2.052-.861,2.698-1.318,5.004-3.259,6.894-5.41,1.9-2.157,3.422-4.524,4.756-6.916,1.331-2.397,2.468-4.835,3.535-7.239.525-1.204,1.047-2.403,1.566-3.595.519-1.245.982-2.469,1.426-3.705,1.75-4.944,2.921-9.931,3.649-14.768.744-4.867.895-9.462,1.619-13.513.364-2.029.835-3.916,1.519-5.658.337-.881.755-1.713,1.113-2.548.374-.829.867-1.589,1.277-2.363,1.808-3.032,3.874-5.631,5.73-7.923,1.915-2.304,3.575-4.301,4.938-5.941,1.357-1.683,2.424-3.011,3.095-3.975.685-.95,1.048-1.453,1.048-1.453,0,0,.097-.12.261-.377.165-.257.409-.639.729-1.138.658-.978,1.546-2.5,2.533-4.544.423-1.063,1.02-2.181,1.371-3.545.192-.672.437-1.359.603-2.098.13-.75.265-1.527.404-2.331l.102-.609.03-.631c.017-.424.034-.855.052-1.293.015-.438.031-.882.047-1.332.001-.422-.055-.918-.084-1.383Z"/>
    <path class="st2" d="M147.561,10.151c-3.446,4.282-6.98,7.318-10.473,8.54-1.787.542-3.623.689-6.029.693-2.388.017-5.324-.131-8.826.221-1.877.146-4.814.636-8.29,1.754-.853.322-1.748.659-2.68,1.011-.815.328-1.533.637-2.342.93l-.149.057-.408.138c-.289.093-.582.207-.869.285-.579.18-1.154.331-1.724.462-1.133.254-2.232.37-3.158.323-.931-.057-1.594-.272-2.087-.611-.496-.334-.979-.889-1.419-1.821-.894-1.875-1.321-4.732-1.657-7.863-.098-.826-.196-1.655-.295-2.488l-.108-.748c-.066-.378-.107-.727-.198-1.137-.155-.797-.346-1.587-.619-2.317-.53-1.478-1.351-2.685-2.493-3.516-1.159-.86-2.66-1.228-4.06-1.109-2.838.14-6.114,3.026-6.722,3.125-1.227.646-2.516,1.163-3.866,1.542-1.35.383-2.766.609-4.252.731-.742.064-1.508.09-2.302.104-1.019.003-2.039.005-3.062.008-1.726.01-3.471.152-4.779.809-.675.298-1.237.731-1.754,1.258-.501.538-.94,1.203-1.172,1.885-.509,1.349-.514,2.886-.044,4.535.066.404.241.814.383,1.222l.411,1.137.215.569c.056.168.181.433.169.505.436,1.684-.258,3.764-1.937,5.111-.822.666-1.826,1.138-2.922,1.366-1.107.232-2.252.227-3.595-.034-2.711-.5-5.752-1.927-9.343-3.194-1.824-.609-3.83-1.244-6.308-1.333-1.229-.038-2.571.09-3.889.483-1.317.384-2.583,1.04-3.609,1.836-.528.389-.993.818-1.426,1.251l-.617.662c-.217.247-.323.394-.589.73-.262.35-.575.67-.7,1.067l-.411.924c-.241.514-.419,1.026-.576,1.536-.662,2.045-.985,4.041-1.139,5.905-.308,3.743-.156,7.126-.19,10.264-.038,3.123-.2,5.99-.971,8.341-.727,2.435-1.824,4.15-3.535,5.518-1.765,1.375-4.283,2.486-7.019,3.938-2.737,1.425-5.619,3.489-7.714,6.05-.492.658-.979,1.31-1.462,1.956-.393.684-.783,1.362-1.168,2.033-.41.669-.657,1.362-.969,2.037-.315.661-.547,1.381-.779,2.088-.923,2.82-1.279,5.894-.867,8.784.393,2.895,1.515,5.486,2.865,7.54,1.355,2.069,2.904,3.666,4.389,4.976,1.488,1.32,2.942,2.329,4.273,3.167,2.667,1.669,4.853,2.653,6.342,3.301.745.323,1.32.553,1.71.698.388.15.588.227.588.227,0,0,.798.31,2.329.817,1.541.5,3.784,1.189,6.86,1.755.781.135,1.598.268,2.554.352.451.05,1.014.071,1.557.083.501-.017,1.024-.007,1.538-.055,2.081-.135,4.219-.579,6.334-1.218,2.11-.641,4.21-1.472,6.278-2.321.501-.204,1.008-.411,1.522-.62.471-.209.872-.315,1.281-.445.855-.25,1.758-.404,2.188-.38.143-.018.145.032.226.014-.001.03.017-.007.006.012.01.01-.039-.063.099.099.267.269.81,1.257,1.365,2.426,1.125,2.379,2.693,5.413,4.989,7.939,2.27,2.57,5.122,4.639,8.138,6.221,1.393.674,2.804,1.357,4.231,2.048.675.324,1.354.649,2.036.976.666.349,1.336.7,2.01,1.052,1.35.702,2.708,1.417,4.019,2.211.664.386,1.331.775,2.001,1.164.644.417,1.292.836,1.942,1.256,2.61,1.669,5.083,3.55,7.347,5.608,2.271,2.053,4.279,4.333,5.782,6.842,1.506,2.513,2.475,5.242,2.998,8.231.52,3.009.543,6.267.653,9.897.112,3.581.394,7.685,1.899,11.699.732,2.004,1.798,3.89,3.009,5.617.623.842,1.293,1.645,1.973,2.42.721.711,1.414,1.485,2.171,2.128l1.136.963c.378.318.775.656,1.09.898l2.001,1.589c1.318,1.067,2.611,2.145,3.863,3.239,2.493,2.189,4.841,4.454,6.766,6.789,1.882,2.325,3.327,4.782,3.563,6.808.139,1.016.03,1.943-.308,2.935-.331.987-.947,2.025-1.735,3.041-.789,1.016-1.713,2.021-2.762,2.968-.497.484-1.06.939-1.597,1.402-.263.234-.558.452-.838.676l-.642.507c-1.578,1.2-3.144,2.317-4.678,3.318-.83.539-1.632,1.06-2.403,1.561-.203.131-.405.261-.604.39-.118.085-.158.083-.338.237l-.484.404c-.321.268-.638.532-.952.794-.29.28-.497.623-.745.925-.531.588-.798,1.315-1.092,1.988-.165.716-.356,1.422-.305,2.124-.043,1.407.444,2.694.99,3.822.124.307.257.545.398.754.142.219.28.433.417.643.133.194.293.44.404.572.115.141.227.278.337.413.442.558.845.982,1.202,1.351,2.649,2.675,5.068,4.312,7.328,5.826,2.262,1.482,4.373,2.699,6.419,3.85,2.044,1.153,4.027,2.221,5.937,3.462.948.625,1.895,1.29,2.672,2.118.762.816,1.475,1.848,1.273,3.259.153-.29.385-.592.485-.934.075-.339.224-.716.197-1.073.047-.741-.096-1.473-.299-2.15-.409-1.378-1.077-2.56-1.771-3.661-1.412-2.197-3.023-4.07-4.726-5.849-1.708-1.777-3.541-3.458-5.507-5.183-7.546-6.037-.814-10.939.98-12.304l.742-.586c.325-.261.656-.507.978-.79.646-.554,1.302-1.089,1.938-1.701,1.288-1.17,2.546-2.502,3.724-4.024,1.169-1.521,2.276-3.286,3.004-5.401.739-2.092,1.023-4.53.695-6.806-.307-2.286-1.113-4.346-2.081-6.135-.974-1.796-2.106-3.388-3.298-4.864-2.406-2.915-5.041-5.423-7.746-7.803-1.355-1.184-2.732-2.331-4.122-3.456l-2.098-1.665c-.377-.29-.64-.524-.931-.77l-.868-.732c-2.277-1.988-3.908-4.269-4.891-6.851-.982-2.597-1.275-5.625-1.373-9.036-.114-3.379-.109-7.159-.771-11.025-.66-3.872-2.041-7.775-4.083-11.147-2.035-3.386-4.6-6.246-7.301-8.695-2.705-2.459-5.543-4.595-8.428-6.444-.721-.465-1.439-.928-2.153-1.389-.729-.424-1.454-.847-2.176-1.267-1.436-.866-2.89-1.631-4.332-2.381-.721-.376-1.437-.751-2.15-1.123-.721-.346-1.439-.69-2.152-1.032-1.345-.649-2.676-1.291-3.989-1.925-2.302-1.214-4.256-2.658-5.759-4.36-1.538-1.707-2.569-3.619-3.719-6.033-.3-.612-.608-1.254-1.011-1.973-.383-.696-.885-1.501-1.598-2.321-.686-.817-1.763-1.687-2.899-2.181-.565-.281-1.168-.433-1.76-.588-.535-.083-1.138-.195-1.611-.187-2.03-.049-3.498.335-4.892.715-.71.217-1.419.439-1.995.691-.544.222-1.08.44-1.61.656-2.046.843-3.869,1.555-5.538,2.062-1.664.503-3.159.798-4.475.882-.333.036-.644.02-.957.037-.271-.012-.505-.012-.827-.049-.594-.05-1.242-.152-1.845-.256-2.453-.448-4.427-1.042-5.725-1.466-1.305-.432-1.984-.694-1.984-.694,0,0-.169-.066-.498-.194-.332-.123-.817-.318-1.443-.591-1.248-.541-3.081-1.378-5.179-2.694-2.085-1.3-4.46-3.16-6.113-5.639-1.633-2.481-2.253-5.496-1.039-9.199.153-.459.289-.925.523-1.395.22-.459.385-.975.664-1.391.25-.44.502-.885.756-1.334.307-.394.61-.796.909-1.208,1.299-1.554,2.949-2.815,5.246-4.025,2.262-1.243,5.205-2.424,8.229-4.726,1.465-1.212,2.922-2.652,3.975-4.364l.794-1.281c.23-.436.413-.885.617-1.331l.588-1.35.407-1.354c1.152-3.667,1.279-7.304,1.333-10.687.028-3.386-.092-6.648.162-9.605.118-1.481.371-2.841.756-4.028.089-.303.188-.596.318-.85l.088-.2.015-.046c.006-.018.002-.006-.004.004-.024.033.052-.065.086-.11.043-.052.083-.119.128-.158l.259-.275c.172-.168.338-.328.503-.443.654-.491,1.174-.632,2.186-.633.993.017,2.366.373,3.829.879,2.98,1.006,6.308,2.673,10.52,3.51,2.098.417,4.537.508,6.875.005,2.344-.485,4.621-1.532,6.528-3.087,1.913-1.544,3.439-3.623,4.324-6.017.892-2.384,1.086-5.122.442-7.658-.067-.366-.152-.495-.228-.744l-.234-.665-.029-.083c-.005-.013-.002-.006-.002-.006h0s0,.003,0,.003l.002.004c.002.006.004.012.004.019-.003.015-.021.012-.032.013l2.12-.003c.931-.015,1.885-.047,2.855-.13,1.935-.157,3.913-.469,5.838-1.014,1.926-.539,3.795-1.288,5.543-2.211l1.285-.727.186-.111.104-.067.208-.134.104-.067c.016-.01.006-.004.006-.004l-.004.002-.008.004c-.013.006-.023-.008-.024-.02l-.002-.009.073.518c.092.777.184,1.55.275,2.32.396,3.225.702,6.753,2.414,10.517.862,1.856,2.282,3.829,4.299,5.18,2.005,1.373,4.328,1.94,6.318,2.043,2.01.101,3.811-.148,5.46-.51.821-.187,1.615-.399,2.378-.636.39-.11.751-.246,1.125-.369l.522-.178.184-.07c.976-.353,1.944-.769,2.765-1.102.719-.272,1.409-.534,2.067-.783,2.676-.855,4.907-1.268,6.489-1.4,2.876-.33,5.676-.392,8.575-.809,2.873-.395,5.911-1.31,8.34-3.035,2.391-1.782,3.983-4.026,5.134-6.36.571-1.171.964-2.419,1.423-3.641.338-1.276.654-2.579.97-3.909Z"/>
  </g>
</svg>